<svg width="20" height="20" viewBox="0 0 20 20" fill="none" xmlns="http://www.w3.org/2000/svg">
<path d="M6.07457 4.08974C8.68677 3.86267 11.3137 3.86267 13.9259 4.08974L15.1845 4.19914C16.0223 4.27197 16.7398 4.77169 17.1116 5.48651C17.1592 5.57795 17.1235 5.68867 17.0359 5.74293L11.8143 8.97537C10.6944 9.66863 9.28228 9.68318 8.14835 9.01313L2.89183 5.907C2.8069 5.85682 2.76792 5.75352 2.8062 5.6626C3.14633 4.85463 3.91102 4.27781 4.81605 4.19914L6.07457 4.08974Z" fill="white"/>
<path d="M2.80192 7.30579C2.67195 7.22899 2.50611 7.31164 2.49096 7.46184C2.27952 9.5582 2.33069 11.6744 2.64449 13.7612C2.80992 14.8613 3.70776 15.7046 4.81605 15.801L6.07457 15.9104C8.68677 16.1374 11.3138 16.1374 13.926 15.9104L15.1845 15.801C16.2928 15.7046 17.1906 14.8613 17.356 13.7612C17.679 11.6136 17.7238 9.43484 17.4904 7.27862C17.474 7.12736 17.3054 7.04624 17.176 7.12632L12.4722 10.0382C10.9571 10.9761 9.04658 10.9958 7.51244 10.0893L2.80192 7.30579Z" fill="white"/>
</svg>
