<svg width="20" height="20" viewBox="0 0 20 20" fill="none" xmlns="http://www.w3.org/2000/svg">
<path d="M4.16687 8.21703C5.76387 11.6953 8.60554 14.4607 12.1385 15.9599L12.7048 16.2122C14.0005 16.7895 15.5236 16.3509 16.3139 15.173L17.054 14.0699C17.2946 13.7112 17.2213 13.2282 16.8852 12.957L14.3753 10.9322C14.0067 10.6348 13.4646 10.7041 13.1826 11.0846L12.4061 12.1323C10.4138 11.1495 8.79624 9.53199 7.81345 7.53965L8.86116 6.76322C9.24171 6.4812 9.31098 5.93911 9.01358 5.57045L6.98868 3.0605C6.71756 2.72443 6.23464 2.65113 5.87601 2.8916L4.7653 3.63635C3.58002 4.43111 3.14387 5.96681 3.73448 7.26594L4.16622 8.21561L4.16687 8.21703Z" fill="white"/>
</svg>
