<?xml version="1.0" standalone="no"?>
<!DOCTYPE svg PUBLIC "-//W3C//DTD SVG 20010904//EN"
 "http://www.w3.org/TR/2001/REC-SVG-20010904/DTD/svg10.dtd">
<svg version="1.0" xmlns="http://www.w3.org/2000/svg"
 width="1272.000000pt" height="1272.000000pt" viewBox="0 0 1272.000000 1272.000000"
 preserveAspectRatio="xMidYMid meet">
<metadata>
Created by potrace 1.14, written by Peter Selinger 2001-2017
</metadata>
<g transform="translate(0.000000,1272.000000) scale(0.100000,-0.100000)"
fill="#000000" stroke="none">
<path d="M1618 8873 c6 -2 18 -2 25 0 6 3 1 5 -13 5 -14 0 -19 -2 -12 -5z"/>
<path d="M2028 8873 c12 -2 30 -2 40 0 9 3 -1 5 -23 4 -22 0 -30 -2 -17 -4z"/>
<path d="M2415 8870 c3 -5 21 -10 40 -10 19 0 37 5 40 10 4 6 -12 10 -40 10
-28 0 -44 -4 -40 -10z"/>
<path d="M2826 8865 c25 -19 65 -19 90 0 17 13 13 14 -45 15 -59 0 -63 -1 -45
-15z"/>
<path d="M3220 8871 c0 -24 101 -29 120 -6 11 13 4 15 -54 15 -36 0 -66 -4
-66 -9z"/>
<path d="M3632 8868 c5 -14 88 -23 125 -13 48 12 21 25 -53 25 -56 0 -75 -3
-72 -12z"/>
<path d="M4049 8860 c25 -22 83 -26 125 -10 50 19 27 30 -61 30 l-88 -1 24
-19z"/>
<path d="M4442 8868 c7 -21 50 -38 95 -38 30 0 50 7 70 25 l28 24 -98 1 c-75
0 -98 -3 -95 -12z"/>
<path d="M4850 8865 c0 -23 34 -35 103 -35 49 0 68 4 80 18 10 10 17 22 17 25
0 4 -45 7 -100 7 -81 0 -100 -3 -100 -15z"/>
<path d="M5260 8867 c0 -29 25 -37 110 -37 l86 0 0 -84 -1 -84 -90 -6 c-49 -4
-94 -11 -98 -15 -12 -12 -11 -141 1 -153 6 -6 50 -13 99 -15 l89 -6 -1 -81 -1
-81 -84 -5 c-47 -3 -91 -9 -97 -13 -14 -9 -19 -152 -5 -160 4 -3 51 -7 106 -8
l99 -4 -2 88 -2 87 73 0 c102 0 118 -6 118 -41 l0 -30 118 3 117 3 3 28 c3 27
4 27 83 27 l80 0 6 -30 6 -30 116 0 117 0 11 30 c11 29 13 30 75 30 66 0 88
-10 88 -42 0 -16 11 -18 125 -18 100 0 125 3 125 14 0 21 45 46 84 46 25 0 43
-8 64 -30 l30 -30 121 0 c108 0 121 2 131 19 18 34 130 40 130 6 0 -21 25 -25
161 -25 104 0 129 3 129 14 0 18 22 26 75 26 39 0 43 -2 49 -31 3 -18 29 -55
62 -90 46 -48 63 -59 89 -59 39 0 55 -16 55 -55 0 -24 11 -42 48 -78 43 -43
52 -47 95 -47 41 0 49 -3 59 -25 8 -18 8 -32 0 -49 -9 -21 -5 -29 44 -77 42
-41 56 -51 66 -41 13 13 56 16 82 6 21 -8 21 -62 -1 -86 -15 -17 -13 -21 41
-75 l56 -56 30 28 c30 28 30 29 65 12 25 -12 35 -23 35 -40 0 -28 -17 -47 -42
-47 -16 0 -18 -11 -18 -125 l0 -126 30 -17 c41 -23 39 -70 -2 -90 l-28 -13 0
-109 c0 -123 4 -138 36 -151 18 -6 24 -16 24 -38 0 -23 -7 -32 -34 -45 -30
-14 -94 -16 -530 -16 l-496 0 0 91 c0 80 -2 90 -17 88 -10 -2 -33 1 -50 5 -31
7 -33 10 -33 51 0 50 16 65 69 65 29 0 31 2 31 38 0 35 -10 47 -138 175 l-137
137 -52 0 -51 0 5 -37 c6 -52 -23 -83 -77 -83 -57 0 -84 29 -76 81 l6 40 -132
-3 -133 -3 3 -34 c2 -19 -2 -45 -9 -57 -11 -21 -20 -24 -74 -24 -34 0 -66 5
-73 12 -7 7 -12 34 -12 60 l0 49 -122 -3 -123 -3 -5 -55 -5 -55 -77 -3 -78 -3
0 55 c0 30 -5 58 -11 62 -6 3 -44 -28 -87 -72 l-77 -79 62 -3 c71 -3 77 -11
71 -93 l-3 -44 -82 -3 -83 -3 0 46 c0 25 -3 45 -7 45 -3 0 -21 -11 -40 -26
-26 -20 -33 -32 -33 -60 0 -27 5 -37 20 -41 18 -5 20 -14 20 -73 0 -59 -2 -68
-20 -73 -18 -5 -20 -14 -20 -106 0 -94 1 -101 20 -101 18 0 20 -7 20 -75 0
-68 -2 -75 -20 -75 -19 0 -20 -7 -20 -105 0 -98 1 -105 20 -105 18 0 20 -7 20
-71 0 -62 -2 -71 -20 -76 -18 -5 -20 -14 -20 -103 0 -89 2 -98 20 -103 18 -5
20 -14 20 -75 0 -62 -2 -71 -20 -77 -18 -6 -20 -15 -20 -105 0 -89 2 -98 20
-103 17 -4 20 -14 20 -60 0 -45 5 -61 26 -86 24 -29 30 -31 93 -31 39 0 72 -5
79 -12 7 -7 12 -40 12 -79 0 -40 5 -71 11 -75 7 -4 261 -8 565 -10 477 -3 554
-1 565 12 13 16 14 16 -24 32 -26 11 -28 16 -25 60 l3 47 63 3 c50 2 62 0 62
-12 0 -32 24 -26 66 15 46 46 54 63 29 73 -18 7 -21 76 -3 94 7 7 29 12 50 12
l38 0 0 120 0 120 -31 0 c-50 0 -69 16 -69 58 0 48 14 62 62 62 29 0 45 -7 62
-25 23 -24 27 -25 153 -25 128 0 131 0 147 25 12 18 25 25 49 25 34 -1 67 -20
67 -39 0 -8 42 -11 140 -11 128 0 143 2 170 21 22 17 36 20 63 15 19 -4 38
-13 41 -21 4 -11 23 -15 76 -15 l70 0 0 -54 c0 -68 7 -85 37 -97 19 -7 24 -15
21 -35 -2 -15 -12 -32 -23 -38 -33 -18 -35 -26 -35 -141 0 -60 4 -115 8 -121
4 -6 17 -16 30 -23 29 -15 27 -59 -3 -75 -30 -16 -35 -27 -35 -76 l0 -45 -316
-315 c-173 -173 -324 -327 -335 -342 l-20 -27 34 6 c52 8 77 -10 77 -55 0 -32
-4 -40 -27 -48 -18 -7 -39 -7 -60 0 -29 8 -33 14 -33 43 0 18 -3 33 -7 33 -4
0 -26 -19 -49 -41 l-43 -42 -728 -4 c-400 -2 -753 -4 -783 -5 -30 0 -104 3
-165 7 -90 6 -117 4 -149 -9 -42 -18 -156 -22 -172 -6 -5 5 -32 13 -59 16 -43
6 -59 15 -109 62 -52 49 -59 54 -68 38 -6 -10 -7 -41 -3 -72 l6 -54 -89 0
c-63 0 -93 -4 -101 -14 -16 -19 -16 -143 -1 -161 9 -11 35 -15 99 -15 l86 0 1
-83 0 -83 -87 1 c-51 0 -93 -5 -99 -11 -7 -7 -10 -42 -8 -90 l3 -79 105 -3
105 -3 -3 86 -3 86 93 -3 93 -3 0 -75 0 -75 -80 -6 c-44 -3 1546 -6 3533 -7
l3612 -2 0 2520 0 2521 -2727 -5 c-1501 -3 -2746 -5 -2768 -5 -22 0 -106 2
-188 5 -123 4 -151 2 -169 -10 -28 -20 -88 -21 -114 -1 -28 21 -266 21 -284 0
-9 -10 -32 -15 -77 -15 -47 0 -65 4 -69 15 -5 12 -29 15 -129 15 -100 0 -124
-3 -129 -15 -4 -12 -24 -15 -86 -15 -64 0 -80 3 -80 15 0 12 -20 15 -119 15
-110 0 -119 -1 -124 -20 -5 -18 -14 -20 -96 -20 -84 0 -91 1 -91 20 0 19 -7
20 -105 20 -79 0 -105 -3 -105 -13z m598 -124 l3 -73 -86 0 -85 0 0 75 0 76
83 -3 82 -3 3 -72z m407 -3 l0 -65 -75 0 -75 0 -3 68 -3 68 78 -3 78 -3 0 -65z
m407 53 c24 -22 24 -77 -2 -103 -25 -25 -95 -27 -128 -4 -17 11 -22 25 -22 58
0 23 5 47 12 54 18 18 118 15 140 -5z m408 -5 c31 -34 26 -74 -12 -98 -44 -26
-74 -25 -103 5 -50 49 -19 115 55 115 27 0 45 -6 60 -22z m405 -2 c19 -14 24
-71 7 -88 -5 -5 -33 -8 -63 -6 l-54 3 -3 47 c-2 38 0 47 15 51 37 9 80 7 98
-7z m423 -34 c4 -44 -12 -62 -57 -62 -45 0 -61 14 -61 55 0 42 6 46 65 43 49
-3 50 -4 53 -36z m396 32 c19 -7 22 -64 4 -82 -19 -19 -66 -14 -88 8 -23 23
-25 33 -8 60 13 20 58 27 92 14z m407 -4 c27 -15 24 -56 -6 -76 -23 -15 -27
-15 -50 0 -29 19 -32 47 -9 70 18 19 38 20 65 6z m419 -15 c6 -8 9 -23 5 -35
-5 -17 -13 -21 -43 -18 -30 2 -38 7 -40 27 -6 38 52 58 78 26z m408 -22 c-4
-33 -37 -43 -57 -19 -20 24 -6 46 29 46 28 0 31 -3 28 -27z m412 12 c15 -18 5
-35 -20 -35 -22 0 -34 15 -26 35 7 19 30 19 46 0z m410 -16 c0 -5 -9 -9 -20
-9 -22 0 -27 16 -7 23 15 5 27 -1 27 -14z m-4707 -106 c4 -2 7 -35 7 -74 l0
-69 -49 0 c-26 0 -69 -3 -95 -6 l-46 -7 0 80 c0 44 3 83 7 87 8 8 161 -2 176
-11z m405 -5 c7 -7 12 -35 12 -63 0 -28 -5 -56 -12 -63 -7 -7 -42 -12 -85 -12
l-73 0 0 75 0 75 73 0 c43 0 78 -5 85 -12z m406 -4 c23 -9 22 -102 -1 -120
-27 -20 -117 -18 -135 4 -15 17 -18 88 -4 111 8 12 113 15 140 5z m408 -11
c28 -25 24 -87 -7 -107 -55 -36 -135 -3 -135 56 0 47 25 68 78 68 28 0 52 -6
64 -17z m385 11 c12 -3 29 -17 38 -31 37 -56 -35 -112 -108 -84 -24 9 -27 16
-27 56 0 38 4 47 23 55 27 11 45 12 74 4z m429 -12 c17 -11 24 -51 14 -78 -8
-20 -16 -24 -53 -24 -51 0 -67 13 -67 55 0 17 5 36 12 43 13 13 77 16 94 4z
m426 -27 c16 -36 -12 -75 -55 -75 -41 0 -57 15 -57 55 0 41 5 45 57 45 36 0
45 -4 55 -25z m406 13 c21 -21 14 -56 -14 -75 -23 -15 -29 -15 -52 -2 -41 23
-49 44 -28 68 21 23 75 28 94 9z m410 -10 c31 -31 -16 -76 -62 -59 -25 10 -36
47 -19 64 11 12 68 8 81 -5z m410 -21 c4 -31 -14 -43 -53 -33 -46 12 -24 70
25 64 19 -2 26 -10 28 -31z m408 8 c7 -18 -13 -45 -33 -45 -17 0 -27 24 -19
45 7 20 45 19 52 0z m414 -10 c0 -9 -9 -15 -25 -15 -16 0 -25 6 -25 15 0 9 9
15 25 15 16 0 25 -6 25 -15z m-4300 -180 l0 -75 -85 0 -85 0 0 75 0 75 85 0
85 0 0 -75z m394 69 c12 -5 16 -21 16 -65 0 -68 -12 -79 -84 -79 -72 0 -76 4
-76 74 0 35 3 66 7 69 8 9 116 9 137 1z m421 -20 c19 -26 19 -73 -2 -96 -19
-21 -121 -26 -141 -6 -7 7 -12 31 -12 54 0 33 5 47 23 59 30 22 112 15 132
-11z m403 0 c14 -9 22 -24 22 -42 -1 -42 -24 -64 -73 -69 -36 -4 -49 -1 -66
16 -35 35 -25 82 24 110 23 12 59 7 93 -15z m416 -10 c9 -22 7 -67 -3 -82 -5
-9 -25 -12 -62 -10 l-54 3 -3 39 c-5 60 1 66 62 66 40 0 55 -4 60 -16z m405 2
c7 -8 11 -30 9 -48 -2 -25 -9 -35 -30 -42 -45 -16 -82 3 -86 42 -4 44 12 62
58 62 21 0 43 -6 49 -14z m409 2 c18 -18 15 -75 -4 -82 -44 -17 -104 6 -104
41 0 39 79 70 108 41z m410 -10 c29 -29 3 -78 -42 -78 -18 0 -46 27 -46 45 0
36 62 59 88 33z m417 -17 c11 -35 -5 -52 -44 -49 -36 3 -49 22 -37 54 8 22 73
19 81 -5z m405 -10 c0 -34 -31 -51 -55 -31 -29 24 -9 60 32 60 19 0 23 -5 23
-29z m409 5 c9 -10 8 -16 -4 -26 -17 -14 -45 -7 -45 13 0 29 30 37 49 13z
m402 -11 c-1 -15 -24 -12 -29 3 -3 9 2 13 12 10 10 -1 17 -7 17 -13z m-2245
-150 c14 -21 15 -31 5 -51 -10 -22 -16 -25 -59 -22 -45 3 -47 4 -50 36 -4 43
12 62 54 62 25 0 38 -7 50 -25z m407 11 c23 -18 22 -63 -2 -76 -34 -18 -68
-12 -86 16 -16 25 -16 27 6 50 25 27 55 30 82 10z m401 -6 c49 -18 26 -70 -31
-70 -27 0 -34 5 -39 27 -5 19 -2 30 11 40 22 16 26 16 59 3z m424 -32 c2 -19
-2 -28 -17 -33 -27 -8 -61 11 -61 35 0 21 15 30 50 27 19 -2 26 -8 28 -29z
m1337 15 l930 -3 413 -414 412 -414 0 -1491 0 -1491 -455 0 -455 0 -2 270 -3
269 -280 -269 -280 -269 -735 0 -736 -1 -184 185 c-119 119 -192 185 -206 185
-26 0 -44 18 -44 44 0 11 -26 46 -57 78 -49 50 -63 58 -94 58 -45 0 -63 19
-55 57 5 23 1 34 -24 58 l-30 29 0 441 0 442 25 23 c14 13 25 35 25 50 0 33
17 50 50 50 18 0 44 19 91 68 37 37 69 75 72 85 4 9 12 17 19 17 7 0 103 90
213 200 l200 200 975 2 975 3 3 245 2 244 -122 123 -123 123 -576 0 -576 0
-39 -45 c-22 -25 -74 -80 -116 -121 l-78 -77 0 -108 0 -109 -130 0 c-107 0
-132 -3 -136 -15 -4 -8 -16 -15 -29 -15 -12 0 -28 7 -35 15 -10 12 -42 15
-167 15 -140 0 -156 -2 -182 -21 -30 -22 -81 -18 -81 7 0 11 -23 14 -115 14
l-115 0 0 217 0 217 27 28 c25 26 26 29 9 41 -11 8 -17 23 -14 38 3 22 7 24
55 24 50 0 55 3 107 54 45 44 54 59 50 78 -8 32 12 53 51 53 26 0 43 11 93 64
34 35 62 71 62 80 0 9 17 24 38 35 20 10 104 89 187 175 121 126 155 156 177
156 15 0 30 5 34 11 4 7 14 8 28 3 11 -5 440 -10 951 -11z m-2367 -155 c7 -7
12 -24 12 -38 0 -34 -17 -50 -54 -50 -32 0 -66 25 -66 48 0 42 78 70 108 40z
m405 -2 c33 -26 11 -85 -32 -86 -20 0 -51 30 -51 48 0 21 30 52 49 52 9 0 24
-7 34 -14z m427 -27 c8 -15 5 -22 -14 -34 -34 -23 -76 -11 -76 21 0 43 69 53
90 13z m-629 -149 c42 -23 14 -89 -38 -90 -20 0 -63 34 -63 50 0 3 9 16 20 28
23 24 50 28 81 12z m417 -12 c18 -18 14 -46 -7 -58 -44 -23 -88 1 -77 43 5 22
12 27 39 27 18 0 38 -5 45 -12z m-224 -168 c36 -13 36 -62 0 -78 -51 -24 -97
33 -58 72 18 19 24 19 58 6z m7 -360 c10 -6 19 -21 19 -34 0 -54 -77 -64 -95
-13 -8 24 -6 31 10 43 22 17 40 18 66 4z m1647 -32 c-3 -7 -11 -13 -18 -13 -7
0 -15 6 -17 13 -3 7 4 12 17 12 13 0 20 -5 18 -12z m-3897 -118 c15 -8 19 -21
19 -58 0 -27 -5 -53 -12 -60 -7 -7 -39 -12 -75 -12 -50 0 -64 4 -72 18 -14 27
-8 101 9 112 20 13 107 13 131 0z m414 -10 c20 -17 19 -79 -2 -102 -21 -24
-99 -25 -125 -1 -27 24 -24 86 5 107 25 18 98 16 122 -4z m383 4 c58 -12 62
-87 5 -113 -30 -14 -46 -14 -78 1 -21 9 -25 18 -25 55 0 36 4 45 23 53 28 11
37 12 75 4z m2891 -43 c16 -10 6 -31 -14 -31 -17 0 -28 17 -20 30 8 12 16 12
34 1z m-3884 -191 l0 -65 -77 -3 -78 -3 0 71 0 71 78 -3 77 -3 0 -65z m403 54
c27 -19 30 -78 5 -106 -19 -21 -121 -26 -141 -6 -7 7 -12 31 -12 54 0 52 25
74 85 74 22 0 51 -7 63 -16z m415 -12 c42 -37 2 -112 -62 -112 -63 0 -103 65
-68 112 23 30 95 30 130 0z m1635 -14 c27 -27 2 -77 -39 -78 -27 0 -52 36 -45
65 5 20 12 25 39 25 18 0 38 -5 45 -12z m1238 -19 c9 -16 -21 -43 -40 -36 -9
4 -16 16 -16 27 0 15 7 20 24 20 14 0 28 -5 32 -11z m404 -10 c0 -5 -9 -9 -20
-9 -22 0 -27 16 -7 23 15 5 27 -1 27 -14z m-4306 -112 c14 -10 17 -25 14 -72
l-3 -60 -82 -3 -83 -3 0 69 c0 38 3 72 7 75 12 12 129 7 147 -6z m414 -9 c7
-7 12 -33 12 -58 0 -25 -5 -51 -12 -58 -13 -13 -116 -16 -134 -4 -17 11 -26
76 -14 106 9 24 14 26 73 26 36 0 68 -5 75 -12z m400 -4 c16 -11 22 -25 22
-53 0 -50 -20 -66 -81 -66 -56 0 -78 20 -79 72 0 39 30 63 80 63 20 0 46 -7
58 -16z m427 -24 c13 -24 13 -35 4 -53 -16 -30 -28 -37 -67 -37 -55 0 -72 15
-72 64 0 23 3 46 7 49 3 4 30 7 59 7 49 0 55 -2 69 -30z m1633 -2 c17 -17 15
-39 -5 -54 -42 -31 -91 -6 -79 41 5 20 12 25 39 25 18 0 38 -5 45 -12z m410
-21 c4 -31 -14 -43 -53 -33 -46 12 -24 70 25 64 19 -2 26 -10 28 -31z m410 -4
c3 -22 -28 -40 -48 -28 -12 7 -13 38 -3 49 15 14 48 1 51 -21z m407 -3 c0 -22
-39 -19 -43 3 -3 15 1 18 20 15 12 -2 23 -10 23 -18z m-3897 -112 c7 -7 12
-38 12 -69 0 -65 -5 -69 -80 -69 -76 0 -80 3 -80 75 0 41 4 65 13 68 25 11
123 7 135 -5z m406 -9 c20 -15 26 -29 26 -58 0 -51 -14 -61 -85 -61 -34 0 -66
5 -73 12 -13 13 -16 77 -4 94 25 37 96 44 136 13z m423 -18 c18 -24 15 -66 -6
-85 -14 -12 -32 -16 -67 -14 -40 2 -51 7 -63 30 -20 35 -6 79 29 89 35 10 93
-1 107 -20z m409 -5 c3 -13 4 -37 2 -52 -2 -24 -9 -31 -38 -37 -22 -6 -45 -5
-62 2 -24 9 -28 16 -28 49 0 50 14 62 72 62 42 0 48 -3 54 -24z m402 12 c7 -7
12 -27 12 -45 0 -36 -21 -53 -67 -53 -37 0 -53 16 -53 55 0 40 16 55 60 55 20
0 41 -5 48 -12z m397 0 c22 -10 26 -17 23 -47 -3 -35 -4 -36 -49 -39 -40 -3
-47 0 -59 24 -14 24 -13 28 13 50 32 28 37 28 72 12z m433 -36 c5 -31 -15 -52
-48 -52 -36 0 -54 22 -46 55 6 24 11 26 49 23 35 -3 43 -7 45 -26z m407 9 c13
-42 -25 -72 -65 -51 -22 12 -26 40 -8 58 19 19 66 15 73 -7z m-3077 -133 c7
-7 12 -38 12 -69 l0 -58 -42 -6 c-24 -4 -61 -5 -83 -3 l-40 3 -3 73 -3 72 74
0 c43 0 78 -5 85 -12z m405 -2 c12 -9 17 -27 17 -64 0 -58 -5 -62 -90 -62 -67
0 -78 10 -76 73 1 26 8 43 20 53 25 18 105 18 129 0z m391 -1 c33 -14 36 -18
36 -58 0 -24 -5 -48 -12 -55 -18 -18 -108 -15 -130 5 -23 21 -24 75 0 95 34
31 57 33 106 13z m445 -35 c11 -25 11 -34 0 -48 -23 -31 -42 -42 -72 -42 -50
0 -67 16 -67 64 0 23 3 46 7 49 3 4 31 7 62 7 53 0 57 -2 70 -30z m390 21 c7
-5 13 -25 13 -46 0 -41 -13 -55 -52 -55 -56 0 -70 10 -70 49 0 20 5 42 12 49
14 14 76 16 97 3z m417 -16 c14 -21 15 -31 5 -51 -10 -22 -16 -25 -59 -22 -46
3 -47 4 -50 38 -4 40 16 60 60 60 18 0 33 -8 44 -25z m424 -28 c0 -33 -19 -47
-60 -47 -29 0 -40 5 -50 25 -15 28 -3 51 35 65 29 11 75 -15 75 -43z m404 11
c14 -22 -18 -58 -51 -58 -26 0 -50 38 -39 65 8 22 75 17 90 -7z m-2680 -124
c12 -5 16 -21 16 -70 l0 -64 -80 0 -80 0 0 63 c0 35 3 67 7 70 8 9 116 9 137
1z m399 -5 c30 -16 37 -28 37 -69 0 -50 -14 -60 -85 -60 -34 0 -66 5 -73 12
-7 7 -12 31 -12 54 0 33 5 47 22 58 26 19 80 21 111 5z m425 -15 c28 -19 29
-63 2 -92 -29 -31 -103 -31 -124 0 -38 54 -6 108 64 108 20 0 46 -7 58 -16z
m420 -23 c21 -60 -35 -107 -97 -81 -28 11 -31 17 -31 55 0 23 3 45 7 48 3 4
30 7 59 7 48 0 53 -2 62 -29z m400 17 c7 -7 12 -29 12 -50 l0 -39 -57 3 -58 3
-3 39 c-2 24 2 42 10 47 20 13 82 11 96 -3z m403 2 c22 -12 26 -59 7 -78 -7
-7 -28 -12 -48 -12 -29 0 -39 5 -50 25 -12 23 -11 28 10 50 25 27 50 31 81 15z
m410 -10 c21 -12 25 -50 7 -68 -26 -26 -88 -3 -88 33 0 18 28 45 46 45 9 0 24
-5 35 -10z m-2646 -210 l0 -64 -40 -9 c-22 -4 -59 -5 -82 -2 l-43 6 0 70 0 70
83 -3 82 -3 0 -65z m396 60 c15 -8 19 -21 19 -58 0 -27 -5 -53 -12 -60 -7 -7
-39 -12 -75 -12 -52 0 -64 3 -73 20 -15 29 -9 99 9 110 22 13 108 12 132 0z
m417 -12 c16 -14 15 -78 -2 -100 -18 -24 -102 -25 -128 -1 -21 19 -25 85 -5
101 28 23 107 23 135 0z m398 4 c6 -4 16 -17 23 -29 31 -60 -69 -123 -121 -76
-24 22 -25 88 0 102 20 12 82 14 98 3z m423 -25 c23 -61 -12 -95 -85 -81 -32
6 -34 8 -34 48 0 24 3 46 7 49 3 4 28 7 55 7 41 0 50 -3 57 -23z m405 7 c36
-35 11 -84 -42 -84 -45 0 -62 14 -62 50 0 14 5 31 12 38 17 17 74 15 92 -4z
m414 -6 c16 -14 15 -46 -2 -64 -8 -8 -30 -14 -48 -14 -26 0 -36 6 -45 26 -26
56 42 93 95 52z m-2274 -138 c24 -9 26 -14 26 -70 0 -69 -6 -73 -101 -68 l-54
3 -3 58 c-2 35 2 64 9 73 13 16 85 19 123 4z m431 -20 c20 -17 19 -79 -2 -102
-12 -13 -30 -18 -67 -18 -69 1 -88 17 -84 72 3 37 7 45 36 59 35 18 89 13 117
-11z m411 -7 c18 -25 17 -63 -3 -85 -22 -25 -110 -25 -129 0 -17 22 -18 57 -2
82 17 27 114 29 134 3z m1632 -12 c8 -5 12 -21 10 -37 -3 -25 -8 -29 -39 -32
-43 -4 -64 16 -55 53 5 20 12 25 39 25 17 0 38 -4 45 -9z m-2659 -145 c7 -9
11 -38 9 -73 l-3 -58 -40 -7 c-22 -4 -59 -5 -82 -1 l-43 5 0 67 c0 37 3 71 7
74 13 14 140 8 152 -7z m396 -2 c21 -14 25 -24 25 -65 0 -59 -8 -64 -93 -64
-39 0 -61 5 -67 14 -14 24 -4 103 16 118 25 18 90 16 119 -3z m427 -18 c12
-18 9 -81 -4 -94 -7 -7 -38 -12 -70 -12 -63 0 -78 13 -78 68 0 31 13 47 45 55
29 7 99 -3 107 -17z m413 -16 c15 -29 15 -32 -5 -60 -18 -25 -28 -30 -64 -30
-50 0 -66 13 -66 56 0 57 7 64 66 64 49 0 55 -2 69 -30z m-1044 -140 c15 -9
19 -22 19 -66 0 -49 -2 -55 -26 -64 -29 -11 -78 -13 -111 -4 -21 6 -23 12 -23
69 0 41 4 65 13 68 22 10 108 7 128 -3z m416 -15 c17 -12 23 -25 23 -53 0 -52
-14 -62 -85 -62 -34 0 -66 5 -73 12 -13 13 -16 76 -4 95 21 34 93 38 139 8z
m419 -12 c37 -50 4 -103 -64 -103 -70 0 -102 44 -72 101 15 26 116 28 136 2z
m1639 -43 c0 -33 -2 -35 -36 -38 -43 -4 -64 16 -55 53 6 24 11 26 49 23 41 -3
42 -4 42 -38z m-2270 -112 c21 -10 25 -18 25 -58 0 -25 -5 -51 -12 -58 -15
-15 -134 -16 -143 -2 -9 14 -13 97 -6 108 15 23 95 29 136 10z m416 -8 c14 -8
19 -21 19 -53 0 -24 -5 -48 -12 -55 -19 -19 -118 -15 -134 6 -19 24 -17 72 3
94 18 20 91 25 124 8z m1849 -204 c15 -19 9 -56 -11 -69 -40 -25 -89 16 -74
63 8 24 66 28 85 6z m-202 -178 c31 -31 1 -77 -49 -78 -37 0 -65 41 -47 70 15
23 76 28 96 8z m-220 -164 c19 -6 23 -12 20 -42 -2 -28 -8 -37 -30 -44 -61
-21 -115 42 -66 76 24 17 40 19 76 10z m427 -44 c0 -34 -1 -35 -42 -38 -34 -3
-42 0 -48 17 -3 12 -3 30 0 42 6 17 14 20 48 17 41 -3 42 -4 42 -38z m-625
-140 c22 -22 23 -25 14 -57 -7 -27 -61 -41 -93 -24 -30 17 -29 74 2 89 34 16
55 14 77 -8z m404 0 c18 -6 26 -17 26 -33 0 -32 -18 -47 -60 -47 -74 0 -73 76
2 89 4 0 18 -3 32 -9z m424 -12 c27 -27 2 -68 -41 -68 -32 0 -51 23 -43 55 5
20 12 25 39 25 18 0 38 -5 45 -12z m-620 -167 c8 -5 12 -22 10 -42 -3 -32 -5
-34 -46 -37 -63 -5 -91 30 -55 70 17 19 68 24 91 9z m396 -1 c49 -18 29 -80
-26 -80 -47 0 -64 72 -20 83 9 3 18 5 19 6 1 0 13 -3 27 -9z m431 -19 c13 -42
-25 -72 -65 -51 -22 12 -26 40 -8 58 19 19 66 15 73 -7z m-3480 -196 l0 -80
-92 -3 -93 -3 0 86 0 86 93 -3 92 -3 0 -80z m399 69 c12 -5 16 -21 16 -69 l0
-62 -44 -13 c-30 -8 -57 -9 -83 -3 l-38 9 -3 58 c-4 84 -3 86 72 86 35 0 71
-3 80 -6z m395 -5 c29 -10 31 -14 31 -58 0 -26 -5 -52 -12 -59 -14 -14 -134
-16 -143 -2 -8 14 -14 82 -7 98 11 29 76 40 131 21z m429 -11 c7 -7 12 -30 12
-53 0 -54 -13 -65 -78 -65 -61 0 -81 15 -82 63 0 51 19 67 80 67 31 0 61 -5
68 -12z m393 0 c36 -31 41 -45 25 -76 -17 -33 -34 -42 -76 -42 -38 0 -60 24
-60 65 0 18 7 41 16 49 19 19 74 21 95 4z m429 -28 c15 -63 -27 -100 -90 -79
-27 10 -30 15 -30 54 0 50 7 55 70 52 38 -2 45 -5 50 -27z m387 24 c23 -6 35
-37 27 -70 -7 -26 -45 -36 -86 -22 -23 8 -28 16 -28 43 0 46 31 64 87 49z
m431 -16 c7 -7 12 -21 12 -33 0 -31 -19 -45 -60 -45 -29 0 -39 5 -47 23 -17
37 3 67 47 67 20 0 41 -5 48 -12z m404 -5 c10 -9 18 -21 18 -26 0 -17 -32 -47
-51 -47 -21 0 -49 26 -49 45 0 19 28 45 47 45 9 0 25 -7 35 -17z m416 -25 c2
-19 -2 -28 -17 -33 -33 -10 -61 3 -61 30 0 26 13 35 50 32 19 -2 26 -8 28 -29z
m412 -3 c0 -20 -5 -25 -24 -25 -14 0 -28 5 -31 10 -12 19 4 40 30 40 20 0 25
-5 25 -25z m400 15 c13 -8 13 -11 0 -24 -18 -19 -46 -5 -37 18 7 18 16 20 37
6z m-4302 -119 c9 -5 12 -28 10 -77 l-3 -69 -82 -3 -83 -3 0 81 0 80 73 0 c39
0 78 -4 85 -9z m389 -3 c32 -12 33 -13 33 -70 0 -54 -2 -59 -26 -68 -29 -11
-78 -13 -111 -4 -21 6 -23 12 -23 69 0 54 3 63 23 73 30 14 64 14 104 0z m441
-20 c17 -17 15 -78 -5 -100 -20 -22 -108 -25 -135 -4 -21 15 -25 85 -6 104 16
16 130 16 146 0z m408 -5 c7 -10 13 -29 13 -43 0 -44 -21 -60 -79 -60 -73 0
-97 33 -68 95 10 22 17 25 66 25 40 0 58 -5 68 -17z m390 9 c26 -17 35 -51 22
-80 -11 -22 -21 -28 -56 -30 -24 -2 -50 2 -58 9 -20 17 -18 86 4 98 20 12 72
14 88 3z m409 -4 c23 -10 26 -17 23 -52 -3 -34 -7 -42 -30 -50 -18 -6 -38 -6
-55 0 -24 8 -28 16 -31 50 -2 34 1 42 20 52 30 14 42 14 73 0z m433 -41 c4
-37 -13 -57 -51 -57 -34 0 -67 24 -67 50 0 28 23 41 70 38 41 -3 45 -5 48 -31z
m400 21 c21 -21 14 -58 -12 -68 -49 -18 -86 13 -71 60 7 23 63 28 83 8z m416
-10 c14 -20 14 -24 -1 -40 -29 -32 -83 -17 -83 22 0 42 59 54 84 18z m404 -21
c3 -21 -1 -27 -17 -27 -48 0 -68 29 -33 49 27 17 47 8 50 -22z m418 12 c9 -16
-21 -43 -40 -36 -9 4 -16 16 -16 27 0 15 7 20 24 20 14 0 28 -5 32 -11z m395
-14 c-1 -15 -24 -12 -29 3 -3 9 2 13 12 10 10 -1 17 -7 17 -13z m-4307 -105
c24 -9 26 -14 26 -69 0 -71 -11 -81 -89 -81 -78 0 -81 3 -81 80 0 45 4 70 13
73 22 9 105 7 131 -3z m410 -10 c23 -8 26 -15 26 -59 0 -60 -14 -71 -87 -71
-63 0 -75 9 -75 56 -1 64 1 72 20 77 32 9 90 7 116 -3z m424 -12 c13 -13 16
-66 6 -92 -5 -12 -21 -16 -68 -16 -72 0 -86 10 -86 60 0 20 5 41 12 48 16 16
120 16 136 0z m412 -13 c23 -24 23 -26 7 -60 -16 -33 -20 -35 -65 -35 -57 0
-72 12 -72 60 0 47 15 60 65 60 31 0 47 -6 65 -25z m408 -7 c21 -44 -2 -82
-51 -86 -49 -4 -67 11 -67 59 0 45 19 60 70 56 27 -1 38 -8 48 -29z m414 -3
c24 -33 -7 -75 -56 -75 -40 0 -56 15 -56 52 0 52 80 68 112 23z m412 -7 c17
-28 -4 -53 -50 -56 -48 -3 -73 24 -52 58 16 26 85 24 102 -2z m410 0 c15 -25
-4 -52 -38 -56 -47 -6 -74 36 -44 66 18 18 69 11 82 -10z m394 10 c32 -32 -2
-79 -43 -60 -29 13 -33 46 -7 61 23 14 36 13 50 -1z m422 -27 c0 -20 -32 -37
-50 -26 -5 3 -10 15 -10 26 0 14 7 19 30 19 23 0 30 -5 30 -19z m405 -1 c0
-22 -39 -19 -43 3 -3 15 1 18 20 15 12 -2 23 -10 23 -18z"/>
<path d="M9960 5945 c-20 -21 -21 -27 -9 -41 11 -14 11 -18 -6 -30 -10 -8 -28
-11 -38 -8 -14 4 -33 -8 -73 -47 l-54 -53 0 -202 0 -202 96 -91 97 -90 456 0
456 -1 278 266 277 266 0 129 0 129 -728 0 -729 0 -23 -25z m398 -53 c2 -7 -6
-12 -17 -12 -21 0 -27 11 -14 24 9 9 26 2 31 -12z m-203 -182 c0 -22 -39 -19
-43 3 -3 15 1 18 20 15 12 -2 23 -10 23 -18z m-201 -185 c-9 -23 -54 -19 -54
4 0 11 6 21 13 24 19 7 47 -12 41 -28z m401 15 c3 -6 -1 -13 -10 -16 -19 -8
-30 0 -20 15 8 14 22 14 30 1z m-195 -184 c0 -16 -27 -29 -41 -20 -19 11 -9
34 16 34 15 0 25 -6 25 -14z"/>
<path d="M3873 8817 c-122 -45 -44 -189 80 -148 28 10 36 18 40 44 9 58 -2 86
-40 102 -41 17 -38 17 -80 2z"/>
<path d="M4258 8812 c-40 -24 -43 -103 -6 -134 23 -20 107 -25 138 -8 26 14
43 71 31 103 -21 55 -106 75 -163 39z"/>
<path d="M4657 8812 c-12 -13 -17 -36 -17 -74 0 -54 1 -56 37 -73 39 -19 123
-16 149 6 22 18 19 122 -4 142 -27 25 -143 24 -165 -1z"/>
<path d="M5060 8811 c-13 -24 -13 -121 0 -141 7 -11 30 -15 95 -15 100 0 105
4 105 83 0 86 -7 92 -105 92 -73 0 -86 -3 -95 -19z"/>
<path d="M2613 8793 c-29 -19 -31 -73 -5 -96 19 -17 78 -23 98 -9 13 9 34 46
34 62 0 6 -11 22 -25 35 -28 29 -69 32 -102 8z"/>
<path d="M3014 8785 c-23 -35 -12 -88 22 -103 82 -38 162 43 107 108 -13 15
-30 20 -65 20 -40 0 -50 -4 -64 -25z"/>
<path d="M3415 8777 c-14 -30 -14 -37 -1 -62 20 -37 33 -45 84 -45 53 0 82 26
82 73 0 49 -25 67 -93 67 -54 0 -57 -1 -72 -33z"/>
<path d="M2202 8784 c-14 -10 -22 -25 -22 -45 0 -40 51 -64 99 -48 27 10 31
15 31 50 0 28 -5 41 -19 49 -28 14 -63 12 -89 -6z"/>
<path d="M1388 8779 c-18 -10 -23 -35 -12 -63 7 -19 64 -22 82 -4 17 17 15 42
-6 61 -21 19 -39 21 -64 6z"/>
<path d="M1786 8771 c-23 -26 -17 -52 16 -70 38 -22 82 -5 86 32 2 16 -2 35
-9 43 -17 21 -73 18 -93 -5z"/>
<path d="M978 8769 c-42 -24 -6 -69 42 -54 24 8 27 50 4 59 -21 8 -26 7 -46
-5z"/>
<path d="M573 8763 c-7 -2 -13 -13 -13 -24 0 -14 7 -19 25 -19 29 0 45 28 24
41 -15 10 -18 10 -36 2z"/>
<path d="M4053 8630 c-29 -17 -33 -25 -33 -61 0 -33 6 -47 28 -65 70 -61 190
2 161 84 -21 61 -94 80 -156 42z"/>
<path d="M4452 8627 c-30 -32 -30 -99 0 -127 17 -16 35 -20 83 -20 78 0 95 16
95 88 0 65 -21 82 -100 82 -46 0 -61 -4 -78 -23z"/>
<path d="M4862 8638 c-7 -7 -12 -40 -12 -79 0 -52 4 -68 16 -73 29 -11 160 -6
172 6 7 7 12 39 12 73 0 34 -5 66 -12 73 -7 7 -42 12 -88 12 -46 0 -81 -5 -88
-12z"/>
<path d="M3658 8633 c-43 -7 -60 -74 -30 -120 11 -18 92 -27 125 -14 25 10 27
15 27 65 0 30 -4 57 -8 60 -14 8 -85 14 -114 9z"/>
<path d="M2404 8604 c-20 -19 -24 -31 -19 -52 18 -72 126 -65 133 9 7 63 -67
91 -114 43z"/>
<path d="M2818 8616 c-12 -8 -18 -27 -18 -51 0 -47 21 -64 76 -65 33 0 45 5
58 25 9 13 16 31 16 40 0 9 -7 27 -16 40 -13 20 -25 25 -58 25 -22 0 -49 -7
-58 -14z"/>
<path d="M3220 8615 c-6 -8 -12 -30 -12 -50 0 -52 16 -65 77 -65 38 0 56 5 68
18 22 25 21 75 -1 95 -24 22 -114 23 -132 2z"/>
<path d="M2011 8607 c-13 -7 -29 -20 -35 -30 -9 -15 -6 -23 18 -43 23 -20 35
-24 60 -18 44 9 46 11 46 49 0 19 -3 36 -7 38 -23 13 -61 15 -82 4z"/>
<path d="M1182 8598 c-17 -17 -15 -53 3 -68 8 -7 25 -10 40 -6 43 11 30 86
-15 86 -9 0 -21 -5 -28 -12z"/>
<path d="M1578 8584 c-17 -37 0 -59 47 -59 48 0 65 22 45 59 -19 37 -75 37
-92 0z"/>
<path d="M767 8584 c-4 -4 -7 -16 -7 -26 0 -14 8 -18 36 -18 31 0 35 3 32 23
-2 15 -11 23 -28 25 -14 2 -29 0 -33 -4z"/>
<path d="M370 8565 c0 -8 5 -15 10 -15 6 0 10 7 10 15 0 8 -4 15 -10 15 -5 0
-10 -7 -10 -15z"/>
<path d="M3860 8452 c-71 -35 -62 -112 17 -140 52 -19 107 2 116 44 9 48 -3
83 -34 99 -36 19 -56 19 -99 -3z"/>
<path d="M4250 8452 c-32 -26 -31 -108 2 -134 35 -27 119 -25 145 5 39 42 38
91 -2 130 -23 24 -115 23 -145 -1z"/>
<path d="M4658 8456 c-13 -10 -18 -28 -18 -68 0 -74 16 -88 102 -88 82 0 98
14 98 90 0 68 -14 79 -100 79 -39 0 -72 -5 -82 -13z"/>
<path d="M5060 8451 c-5 -11 -10 -41 -10 -66 0 -79 8 -85 105 -85 97 0 105 7
105 82 0 87 -1 88 -101 88 -77 0 -90 -2 -99 -19z"/>
<path d="M2212 8430 c-43 -27 -43 -63 0 -90 27 -16 35 -17 62 -6 27 11 31 17
31 51 0 34 -4 40 -31 51 -27 11 -35 10 -62 -6z"/>
<path d="M2607 8432 c-26 -28 -22 -77 8 -96 37 -25 80 -20 104 10 12 15 21 32
21 39 0 7 -9 24 -21 39 -25 32 -86 37 -112 8z"/>
<path d="M3016 8428 c-9 -12 -16 -32 -16 -43 0 -42 27 -65 79 -65 56 0 81 21
81 67 0 42 -27 63 -83 63 -36 0 -49 -5 -61 -22z"/>
<path d="M3416 8415 c-13 -30 -13 -38 0 -65 15 -28 19 -30 73 -30 66 0 91 18
91 64 0 55 -14 66 -85 66 -64 0 -65 0 -79 -35z"/>
<path d="M1374 8403 c-9 -35 7 -57 44 -61 26 -3 34 2 43 21 17 38 -3 67 -46
67 -29 0 -36 -4 -41 -27z"/>
<path d="M1781 8406 c-20 -36 3 -66 49 -66 43 0 60 15 60 51 0 30 -15 39 -64
39 -24 0 -36 -6 -45 -24z"/>
<path d="M978 8413 c-24 -6 -23 -40 2 -53 30 -16 60 -3 60 25 0 12 -7 26 -16
29 -17 6 -19 6 -46 -1z"/>
<path d="M567 8403 c-24 -23 12 -55 38 -33 12 10 13 16 4 26 -12 15 -31 18
-42 7z"/>
<path d="M4493 8292 c-44 -14 -63 -39 -63 -86 0 -60 31 -86 104 -86 75 0 96
18 96 84 0 38 -5 57 -17 68 -21 18 -88 29 -120 20z"/>
<path d="M4873 8290 c-21 -8 -23 -16 -23 -78 0 -39 5 -73 12 -80 19 -19 153
-16 172 4 22 22 22 127 0 145 -20 16 -130 22 -161 9z"/>
<path d="M4048 8269 c-22 -16 -28 -29 -28 -57 1 -40 13 -60 48 -79 77 -44 175
33 137 108 -9 15 -24 33 -34 39 -32 17 -94 11 -123 -11z"/>
<path d="M2833 8264 c-28 -14 -33 -22 -33 -54 0 -46 24 -70 73 -70 64 0 99 62
60 108 -25 29 -62 35 -100 16z"/>
<path d="M3240 8273 c-23 -9 -30 -24 -30 -68 0 -53 13 -65 72 -65 59 0 88 22
88 66 0 55 -69 90 -130 67z"/>
<path d="M3630 8258 c-25 -27 -26 -69 -1 -99 16 -20 28 -23 74 -23 30 1 59 4
66 8 6 4 11 32 11 61 0 64 -13 75 -84 75 -34 0 -50 -6 -66 -22z"/>
<path d="M2413 8258 c-25 -12 -37 -51 -24 -77 6 -10 23 -24 40 -30 24 -10 34
-10 60 3 25 14 31 23 31 50 0 56 -50 82 -107 54z"/>
<path d="M1603 8252 c-28 -4 -39 -41 -23 -71 15 -30 69 -28 92 3 15 20 15 26
3 43 -16 23 -39 30 -72 25z"/>
<path d="M1990 8238 c-25 -27 -25 -40 0 -63 19 -17 79 -23 100 -10 19 11 11
74 -9 85 -32 16 -69 12 -91 -12z"/>
<path d="M1183 8244 c-21 -9 -16 -62 7 -74 33 -17 62 4 58 43 -2 26 -8 32 -28
34 -14 1 -31 -1 -37 -3z"/>
<path d="M777 8232 c-12 -2 -17 -11 -15 -25 4 -31 62 -32 66 -1 3 23 -18 33
-51 26z"/>
<path d="M370 8210 c0 -11 5 -20 10 -20 6 0 10 9 10 20 0 11 -4 20 -10 20 -5
0 -10 -9 -10 -20z"/>
<path d="M4274 8106 c-40 -18 -47 -29 -47 -78 0 -50 26 -78 79 -85 54 -7 91
10 111 51 14 29 14 39 3 66 -22 54 -83 73 -146 46z"/>
<path d="M4663 8103 c-19 -13 -23 -25 -23 -74 0 -73 18 -89 100 -89 82 0 100
16 100 90 0 49 -4 61 -22 74 -30 21 -125 20 -155 -1z"/>
<path d="M5066 8104 c-11 -10 -16 -34 -16 -74 0 -80 12 -90 105 -90 93 0 105
10 105 90 0 80 -12 90 -105 90 -54 0 -78 -4 -89 -16z"/>
<path d="M3870 8103 c-8 -3 -25 -15 -37 -26 -71 -64 37 -159 131 -116 27 13
35 37 28 91 -3 30 -9 39 -35 47 -32 12 -62 13 -87 4z"/>
<path d="M2640 8093 c-55 -20 -67 -78 -24 -112 36 -28 70 -26 99 5 37 40 29
75 -22 102 -23 13 -30 13 -53 5z"/>
<path d="M3027 8086 c-29 -22 -33 -80 -8 -105 27 -27 87 -28 119 -2 51 43 14
120 -58 120 -19 0 -43 -6 -53 -13z"/>
<path d="M3433 8088 c-28 -35 -33 -57 -21 -85 17 -39 25 -43 85 -43 42 0 55 4
67 22 22 31 20 74 -4 98 -23 23 -111 28 -127 8z"/>
<path d="M2208 8074 c-55 -29 -24 -105 42 -104 39 1 60 23 60 63 0 30 -4 36
-31 46 -39 13 -38 14 -71 -5z"/>
<path d="M1400 8073 c-38 -15 -41 -68 -5 -85 19 -9 29 -8 50 6 31 20 32 50 3
70 -24 17 -25 17 -48 9z"/>
<path d="M1787 8062 c-22 -24 -21 -45 1 -65 22 -20 73 -22 90 -5 18 18 15 59
-5 74 -26 19 -67 17 -86 -4z"/>
<path d="M978 8056 c-25 -19 -22 -45 7 -58 45 -20 79 38 36 62 -24 12 -22 12
-43 -4z"/>
<path d="M567 8044 c-17 -18 -6 -35 21 -32 16 2 27 9 27 18 0 16 -36 26 -48
14z"/>
<path d="M4080 7929 c-43 -17 -60 -40 -60 -80 0 -51 35 -79 99 -79 51 1 70 12
88 52 18 41 -1 85 -44 103 -41 17 -49 17 -83 4z"/>
<path d="M4456 7919 c-22 -17 -26 -29 -26 -68 0 -66 21 -84 99 -85 79 -1 101
18 101 86 0 39 -5 54 -22 69 -33 27 -117 26 -152 -2z"/>
<path d="M4868 7929 c-15 -8 -18 -24 -18 -80 0 -67 1 -70 28 -80 36 -14 152
-5 163 12 15 25 11 126 -7 143 -18 19 -138 22 -166 5z"/>
<path d="M5263 7925 c-9 -25 2 -27 22 -5 17 18 17 20 1 20 -9 0 -19 -7 -23
-15z"/>
<path d="M2422 7905 c-18 -8 -33 -22 -34 -32 -5 -57 16 -82 68 -83 41 0 66 29
62 71 -4 44 -47 64 -96 44z"/>
<path d="M2817 7902 c-10 -10 -17 -35 -17 -55 0 -31 5 -39 31 -53 80 -41 159
45 96 104 -29 28 -87 29 -110 4z"/>
<path d="M3233 7912 c-22 -14 -33 -59 -22 -91 25 -72 159 -45 159 33 0 43 -29
66 -83 66 -23 0 -47 -4 -54 -8z"/>
<path d="M3626 7898 c-50 -71 19 -143 111 -117 l43 12 0 57 c0 67 -4 70 -85
70 -44 0 -57 -4 -69 -22z"/>
<path d="M1580 7879 c-17 -31 -4 -69 23 -70 39 -2 52 2 69 22 17 20 17 22 0
45 -23 31 -76 33 -92 3z"/>
<path d="M1987 7882 c-22 -24 -21 -38 3 -62 22 -22 79 -27 98 -8 18 18 15 75
-4 82 -31 12 -81 6 -97 -12z"/>
<path d="M1183 7884 c-7 -3 -13 -19 -13 -35 0 -22 6 -30 25 -35 40 -10 57 2
53 38 -2 27 -8 33 -28 35 -14 1 -31 -1 -37 -3z"/>
<path d="M767 7874 c-14 -14 -7 -43 12 -49 29 -9 52 5 49 29 -3 21 -46 35 -61
20z"/>
<path d="M370 7850 c0 -11 5 -20 10 -20 6 0 10 9 10 20 0 11 -4 20 -10 20 -5
0 -10 -9 -10 -20z"/>
<path d="M4258 7744 c-19 -10 -29 -23 -30 -42 -5 -92 13 -112 98 -112 58 0 65
2 81 26 44 69 2 144 -80 144 -23 -1 -54 -8 -69 -16z"/>
<path d="M4657 7742 c-26 -28 -24 -128 2 -142 27 -14 154 -13 169 2 20 20 15
122 -6 141 -27 25 -143 24 -165 -1z"/>
<path d="M5060 7739 c-6 -11 -10 -27 -8 -36 2 -13 9 -11 36 11 38 33 41 46 7
46 -14 0 -29 -8 -35 -21z"/>
<path d="M3865 7743 c-27 -7 -55 -43 -55 -71 0 -33 54 -82 92 -82 47 0 88 26
90 58 2 40 -2 76 -11 84 -9 10 -91 18 -116 11z"/>
<path d="M2613 7723 c-29 -19 -31 -73 -5 -96 27 -25 87 -22 112 5 27 29 25 54
-6 83 -31 28 -69 31 -101 8z"/>
<path d="M3014 7715 c-19 -30 -12 -90 12 -99 9 -3 35 -6 58 -6 51 0 76 22 76
67 0 42 -27 63 -83 63 -39 0 -49 -4 -63 -25z"/>
<path d="M3415 7706 c-15 -31 -15 -37 -1 -64 17 -33 60 -47 115 -36 36 7 51
29 51 72 0 44 -27 62 -93 62 -54 0 -57 -1 -72 -34z"/>
<path d="M2210 7717 c-17 -9 -26 -22 -28 -45 -3 -28 1 -34 33 -49 33 -16 38
-16 63 -1 19 12 28 26 30 49 6 53 -41 75 -98 46z"/>
<path d="M1382 7708 c-14 -14 -16 -47 -3 -66 11 -18 71 -11 85 10 16 26 -11
68 -44 68 -14 0 -31 -5 -38 -12z"/>
<path d="M1781 7696 c-11 -19 -10 -27 1 -45 11 -18 21 -21 58 -19 41 3 45 5
48 31 5 39 -14 57 -58 57 -28 0 -39 -5 -49 -24z"/>
<path d="M978 7699 c-41 -23 1 -81 42 -59 20 11 29 60 11 60 -5 0 -15 2 -23 5
-7 2 -21 0 -30 -6z"/>
<path d="M564 7685 c-8 -20 4 -35 27 -35 24 0 37 29 18 41 -21 13 -39 11 -45
-6z"/>
<path d="M4065 7568 c-36 -21 -45 -36 -45 -77 0 -32 5 -43 29 -60 31 -23 90
-28 122 -11 10 6 25 24 34 39 39 76 -62 154 -140 109z"/>
<path d="M4452 7560 c-31 -29 -31 -101 0 -130 30 -28 137 -29 161 -2 24 26 23
113 -1 135 -28 26 -131 23 -160 -3z"/>
<path d="M4862 7568 c-7 -7 -12 -30 -12 -52 l0 -40 45 44 c25 24 45 48 45 52
0 13 -65 9 -78 -4z"/>
<path d="M3654 7563 c-23 -4 -44 -41 -44 -76 1 -52 66 -84 127 -63 37 13 38
15 41 66 2 29 0 56 -5 61 -10 10 -92 18 -119 12z"/>
<path d="M2418 7545 c-37 -21 -45 -51 -21 -84 25 -32 76 -40 104 -15 28 25 25
78 -6 98 -30 19 -42 20 -77 1z"/>
<path d="M2818 7546 c-12 -8 -18 -27 -18 -51 0 -47 21 -64 76 -65 66 0 96 54
58 108 -12 17 -25 22 -57 22 -23 0 -50 -7 -59 -14z"/>
<path d="M3222 7548 c-16 -16 -16 -90 0 -106 20 -20 112 -15 131 6 22 25 21
75 -1 95 -22 20 -112 23 -130 5z"/>
<path d="M1188 7529 c-22 -12 -23 -52 -3 -69 8 -7 25 -10 40 -6 19 5 25 13 25
34 0 45 -26 62 -62 41z"/>
<path d="M1580 7519 c-20 -36 2 -69 44 -69 77 0 79 82 3 88 -28 2 -38 -1 -47
-19z"/>
<path d="M1986 7521 c-22 -24 -16 -44 19 -67 20 -13 33 -15 58 -7 29 8 32 12
32 48 l0 40 -46 3 c-35 2 -49 -2 -63 -17z"/>
<path d="M760 7500 c0 -10 8 -23 17 -29 23 -12 53 4 53 29 0 16 -7 20 -35 20
-28 0 -35 -4 -35 -20z"/>
<path d="M370 7495 c0 -8 5 -15 10 -15 6 0 10 7 10 15 0 8 -4 15 -10 15 -5 0
-10 -7 -10 -15z"/>
<path d="M4673 7394 c-32 -16 -33 -19 -33 -74 0 -78 16 -92 101 -88 l64 3 3
81 c3 78 2 82 -20 88 -39 10 -82 6 -115 -10z"/>
<path d="M4252 7384 c-31 -22 -32 -108 0 -135 28 -25 119 -26 143 -2 39 39 41
92 4 132 -25 26 -112 29 -147 5z"/>
<path d="M3025 7365 c-23 -22 -26 -32 -22 -62 8 -45 19 -53 78 -53 54 0 79 21
79 67 0 37 -26 62 -73 70 -30 4 -40 1 -62 -22z"/>
<path d="M3442 7381 c-7 -4 -20 -21 -28 -36 -13 -25 -13 -32 1 -60 11 -25 23
-34 50 -38 40 -6 95 7 107 25 16 25 8 77 -14 98 -23 21 -90 28 -116 11z"/>
<path d="M3831 7364 c-28 -35 -26 -65 3 -97 32 -35 68 -43 114 -25 40 15 53
47 44 106 -5 34 -21 42 -94 42 -38 0 -50 -5 -67 -26z"/>
<path d="M2612 7364 c-32 -22 -30 -76 3 -98 37 -25 80 -20 104 10 12 15 21 32
21 39 0 7 -9 24 -21 39 -24 30 -72 35 -107 10z"/>
<path d="M1792 7354 c-43 -30 -14 -84 44 -84 36 0 54 16 54 46 0 24 -34 54
-60 54 -9 0 -26 -7 -38 -16z"/>
<path d="M2196 7351 c-25 -27 -16 -62 19 -82 26 -16 34 -16 63 -4 27 12 32 19
32 48 0 18 -5 38 -12 45 -19 19 -82 15 -102 -7z"/>
<path d="M1382 7348 c-16 -16 -15 -53 2 -67 8 -7 27 -11 43 -9 34 4 54 47 33
72 -15 19 -61 21 -78 4z"/>
<path d="M973 7343 c-18 -7 -16 -38 2 -53 23 -20 65 -4 65 24 0 30 -31 44 -67
29z"/>
<path d="M563 7324 c-3 -9 0 -20 8 -25 17 -11 21 -11 38 0 12 8 12 12 2 25
-17 21 -40 20 -48 0z"/>
<path d="M4475 7218 c-33 -18 -45 -40 -45 -84 0 -34 5 -47 28 -64 22 -18 37
-21 83 -18 74 5 89 21 89 91 0 52 -1 55 -34 71 -39 18 -92 20 -121 4z"/>
<path d="M4070 7213 c-46 -17 -65 -76 -40 -123 16 -30 75 -45 122 -31 98 30
71 163 -32 160 -19 0 -42 -3 -50 -6z"/>
<path d="M2823 7193 c-32 -22 -32 -85 -1 -107 33 -23 83 -20 108 6 27 29 25
64 -5 93 -28 29 -69 32 -102 8z"/>
<path d="M3226 7194 c-25 -25 -24 -92 2 -111 22 -18 93 -16 120 3 31 21 30 79
0 105 -29 23 -100 25 -122 3z"/>
<path d="M3626 7185 c-49 -75 24 -146 118 -115 35 11 36 13 36 64 0 28 -5 57
-12 64 -7 7 -38 12 -69 12 -49 0 -59 -3 -73 -25z"/>
<path d="M2418 7189 c-33 -12 -45 -52 -24 -84 19 -28 55 -36 95 -19 27 12 31
18 31 54 0 34 -4 42 -26 50 -30 12 -40 12 -76 -1z"/>
<path d="M1593 7182 c-21 -13 -26 -58 -8 -76 27 -27 65 -21 93 15 10 13 8 21
-9 43 -20 25 -52 33 -76 18z"/>
<path d="M1986 7163 c-22 -30 -15 -49 26 -72 21 -12 30 -12 57 -2 25 11 31 19
31 45 0 41 -16 56 -59 56 -27 -1 -41 -7 -55 -27z"/>
<path d="M1182 7171 c-8 -5 -12 -21 -10 -37 3 -26 7 -29 38 -29 31 0 35 3 38
29 4 29 -10 46 -38 46 -8 0 -21 -4 -28 -9z"/>
<path d="M773 7163 c-20 -7 -15 -41 6 -48 26 -8 51 4 51 25 0 24 -28 35 -57
23z"/>
<path d="M370 7140 c0 -11 5 -20 10 -20 6 0 10 9 10 20 0 11 -4 20 -10 20 -5
0 -10 -9 -10 -20z"/>
<path d="M4263 7030 c-33 -19 -39 -36 -34 -90 4 -45 28 -60 96 -60 46 0 66 4
77 18 55 62 8 152 -79 152 -15 0 -43 -9 -60 -20z"/>
<path d="M4663 7033 c-19 -13 -23 -25 -23 -73 0 -34 5 -62 13 -68 19 -16 83
-25 122 -18 l36 7 -3 82 -3 82 -60 2 c-42 2 -67 -2 -82 -14z"/>
<path d="M3876 7032 c-34 -4 -65 -37 -66 -70 0 -13 13 -37 29 -53 24 -23 38
-29 73 -29 62 1 80 18 81 80 0 27 -3 54 -9 59 -12 11 -70 18 -108 13z"/>
<path d="M2618 7014 c-22 -11 -28 -22 -28 -48 0 -44 26 -66 78 -66 36 0 43 4
58 31 19 38 7 70 -33 88 -31 14 -42 13 -75 -5z"/>
<path d="M3025 7014 c-23 -17 -27 -86 -7 -106 20 -20 96 -16 121 6 46 42 8
116 -60 116 -19 0 -43 -7 -54 -16z"/>
<path d="M3420 6998 c-23 -38 -24 -44 -10 -53 6 -3 10 -14 10 -24 0 -25 60
-42 105 -30 54 15 72 70 39 117 -12 18 -25 22 -70 22 -51 0 -56 -2 -74 -32z"/>
<path d="M1385 6994 c-9 -9 -15 -28 -13 -43 2 -21 9 -27 36 -29 57 -6 82 37
44 71 -23 21 -46 21 -67 1z"/>
<path d="M1786 6991 c-23 -26 -17 -52 16 -70 38 -22 82 -5 86 32 2 15 -3 34
-12 42 -21 21 -70 19 -90 -4z"/>
<path d="M2192 6998 c-35 -35 2 -98 58 -98 42 1 62 23 58 67 l-3 38 -50 3
c-30 2 -55 -2 -63 -10z"/>
<path d="M571 6981 c-19 -12 -6 -41 18 -41 27 0 34 15 15 34 -18 19 -15 18
-33 7z"/>
<path d="M967 6984 c-29 -29 26 -80 58 -54 26 22 15 55 -20 58 -17 2 -34 0
-38 -4z"/>
<path d="M4085 6857 c-47 -15 -65 -36 -65 -77 0 -53 32 -80 97 -80 35 0 54 5
65 18 31 35 36 56 24 92 -9 28 -18 36 -51 46 -27 7 -50 8 -70 1z"/>
<path d="M4456 6849 c-21 -17 -26 -29 -26 -68 0 -65 21 -81 104 -81 79 0 96
15 96 87 0 43 -4 53 -25 67 -36 24 -116 21 -149 -5z"/>
<path d="M2818 6836 c-21 -15 -25 -85 -6 -104 19 -19 102 -15 121 6 40 44 1
112 -64 112 -19 0 -42 -7 -51 -14z"/>
<path d="M3232 6841 c-19 -12 -30 -62 -20 -92 15 -43 96 -49 141 -11 23 20 22
74 -1 95 -20 18 -97 23 -120 8z"/>
<path d="M3626 6828 c-30 -42 -16 -91 31 -116 29 -16 58 -15 93 3 28 14 30 20
30 69 0 62 -5 66 -85 66 -44 0 -57 -4 -69 -22z"/>
<path d="M2413 6830 c-38 -15 -40 -69 -4 -97 24 -19 76 -16 94 5 24 26 22 79
-2 92 -23 12 -58 12 -88 0z"/>
<path d="M1187 6816 c-12 -10 -17 -24 -15 -43 3 -25 7 -28 38 -28 31 0 35 3
38 30 3 19 -2 33 -14 42 -22 16 -24 16 -47 -1z"/>
<path d="M1579 6809 c-18 -35 3 -69 44 -69 37 0 57 15 57 43 0 46 -79 67 -101
26z"/>
<path d="M1986 6811 c-24 -27 -12 -58 28 -78 30 -14 35 -14 60 2 30 20 37 78
10 89 -32 12 -81 6 -98 -13z"/>
<path d="M767 6804 c-14 -14 -7 -43 12 -49 29 -9 52 5 49 29 -3 21 -46 35 -61
20z"/>
<path d="M370 6779 c0 -11 5 -17 10 -14 6 3 10 13 10 21 0 8 -4 14 -10 14 -5
0 -10 -9 -10 -21z"/>
<path d="M4263 6674 c-25 -11 -33 -21 -34 -42 -4 -91 13 -112 88 -112 68 0 88
11 102 53 29 87 -59 144 -156 101z"/>
<path d="M4657 6672 c-12 -13 -17 -37 -17 -75 0 -69 11 -77 104 -77 l66 0 0
85 0 85 -68 0 c-54 0 -72 -4 -85 -18z"/>
<path d="M3452 6673 c-14 -3 -28 -18 -37 -38 -12 -30 -12 -38 1 -64 17 -34 53
-46 108 -35 40 7 56 28 56 72 0 50 -59 80 -128 65z"/>
<path d="M3853 6670 c-50 -21 -56 -80 -12 -121 37 -34 91 -39 128 -10 20 15
24 27 23 66 0 26 -5 52 -11 58 -14 14 -101 19 -128 7z"/>
<path d="M2618 6654 c-22 -11 -28 -22 -28 -48 0 -44 26 -66 78 -66 36 0 44 4
57 30 20 39 19 47 -11 75 -31 28 -57 31 -96 9z"/>
<path d="M3017 6647 c-21 -25 -17 -84 5 -99 25 -15 104 -9 121 10 22 25 21 75
-1 95 -28 26 -102 22 -125 -6z"/>
<path d="M2210 6647 c-35 -18 -40 -65 -8 -89 29 -22 52 -23 83 -2 36 23 35 81
-1 94 -33 13 -44 12 -74 -3z"/>
<path d="M1382 6638 c-7 -7 -12 -20 -12 -29 0 -36 12 -49 46 -49 27 0 37 5 46
25 9 21 8 28 -7 45 -20 22 -55 26 -73 8z"/>
<path d="M1781 6626 c-10 -19 -10 -27 0 -44 27 -43 102 -35 107 12 5 38 -14
56 -58 56 -28 0 -39 -5 -49 -24z"/>
<path d="M978 6629 c-41 -23 1 -81 42 -59 20 11 29 60 11 60 -5 0 -15 2 -23 5
-7 2 -21 0 -30 -6z"/>
<path d="M564 6615 c-12 -29 15 -45 45 -26 12 8 12 12 2 25 -17 20 -40 21 -47
1z"/>
<path d="M4078 6500 c-42 -12 -58 -34 -58 -79 0 -51 34 -81 94 -81 74 0 117
55 91 117 -7 17 -17 33 -22 35 -18 11 -80 16 -105 8z"/>
<path d="M4452 6490 c-16 -15 -22 -32 -22 -64 0 -61 29 -86 101 -86 79 0 99
17 99 85 0 68 -20 85 -100 85 -43 0 -62 -5 -78 -20z"/>
<path d="M3230 6482 c-16 -13 -22 -29 -22 -55 0 -54 15 -67 77 -67 61 0 85 19
85 68 0 60 -89 95 -140 54z"/>
<path d="M3630 6478 c-38 -41 -21 -100 35 -124 28 -11 41 -12 72 -1 37 12 38
13 41 67 4 66 -10 80 -80 80 -36 0 -52 -5 -68 -22z"/>
<path d="M2430 6480 c-14 -3 -31 -18 -40 -32 -13 -25 -13 -29 6 -55 41 -55
124 -34 124 31 0 47 -35 70 -90 56z"/>
<path d="M2818 6476 c-12 -8 -18 -27 -18 -51 0 -47 21 -64 75 -65 68 0 99 61
55 108 -24 25 -84 30 -112 8z"/>
<path d="M1602 6469 c-29 -11 -37 -34 -24 -65 9 -19 19 -24 46 -24 45 0 73 33
53 64 -17 25 -47 35 -75 25z"/>
<path d="M1990 6455 c-28 -29 -21 -50 23 -75 41 -23 81 -4 85 40 6 61 -63 83
-108 35z"/>
<path d="M1188 6459 c-11 -6 -18 -22 -18 -39 0 -23 5 -31 25 -36 15 -4 32 -1
40 6 21 18 19 57 -4 70 -23 12 -22 12 -43 -1z"/>
<path d="M760 6430 c0 -10 8 -23 17 -29 23 -12 53 4 53 29 0 16 -7 20 -35 20
-28 0 -35 -4 -35 -20z"/>
<path d="M367 6434 c-8 -8 1 -24 14 -24 5 0 9 7 9 15 0 15 -12 20 -23 9z"/>
<path d="M4668 6322 c-25 -15 -28 -22 -28 -74 0 -74 20 -90 107 -86 l58 3 3
79 c2 57 -1 82 -10 87 -22 15 -102 9 -130 -9z"/>
<path d="M4264 6321 c-30 -13 -36 -25 -36 -76 0 -53 17 -74 66 -82 63 -10 102
4 120 42 17 36 14 67 -9 99 -17 22 -105 32 -141 17z"/>
<path d="M3020 6293 c-16 -21 -20 -37 -16 -62 7 -43 7 -43 63 -48 59 -6 93 18
93 65 0 67 -98 98 -140 45z"/>
<path d="M3442 6311 c-7 -4 -20 -21 -28 -36 -30 -58 32 -116 106 -100 41 9 60
30 60 69 0 45 -35 76 -86 76 -21 0 -45 -4 -52 -9z"/>
<path d="M3831 6294 c-65 -83 46 -165 143 -108 15 9 19 23 19 57 0 64 -14 77
-83 77 -51 0 -61 -3 -79 -26z"/>
<path d="M2612 6294 c-15 -10 -22 -25 -22 -47 0 -70 114 -91 140 -26 28 67
-54 118 -118 73z"/>
<path d="M1787 6282 c-22 -24 -21 -45 1 -65 22 -19 40 -23 75 -14 21 6 27 13
27 36 0 54 -68 82 -103 43z"/>
<path d="M2197 6282 c-50 -55 35 -124 96 -78 22 17 23 81 1 90 -31 12 -81 6
-97 -12z"/>
<path d="M1380 6276 c-19 -24 -8 -60 23 -70 23 -8 31 -6 49 12 19 18 20 25 10
47 -13 29 -61 35 -82 11z"/>
<path d="M963 6264 c-10 -26 11 -49 43 -49 26 0 29 4 29 30 0 27 -4 30 -33 33
-23 2 -34 -2 -39 -14z"/>
<path d="M566 6253 c-4 -9 -1 -20 6 -24 17 -11 48 8 42 26 -8 20 -40 19 -48
-2z"/>
<path d="M4475 6148 c-33 -18 -45 -40 -45 -83 0 -60 21 -75 104 -75 83 0 96
11 96 79 0 42 -4 53 -26 70 -29 23 -95 28 -129 9z"/>
<path d="M4080 6143 c-40 -8 -60 -32 -60 -74 0 -59 29 -81 105 -77 58 3 60 4
77 40 16 33 16 40 3 72 -9 20 -21 36 -29 36 -7 0 -26 2 -42 4 -16 2 -40 2 -54
-1z"/>
<path d="M2823 6123 c-17 -11 -23 -25 -23 -53 0 -48 19 -63 76 -62 73 1 98 55
48 106 -30 29 -67 33 -101 9z"/>
<path d="M3225 6120 c-21 -23 -24 -85 -5 -104 16 -16 113 -14 133 3 25 20 22
76 -5 101 -30 28 -98 28 -123 0z"/>
<path d="M3626 6115 c-50 -77 38 -155 129 -113 22 10 25 17 25 63 0 28 -5 56
-12 63 -7 7 -38 12 -69 12 -49 0 -59 -3 -73 -25z"/>
<path d="M2423 6119 c-20 -6 -34 -17 -35 -27 -3 -33 2 -54 16 -68 18 -17 87
-19 104 -2 13 13 17 84 5 91 -21 11 -61 14 -90 6z"/>
<path d="M1585 6100 c-11 -13 -15 -27 -11 -43 10 -41 79 -46 104 -7 9 15 7 23
-9 44 -24 31 -59 34 -84 6z"/>
<path d="M1987 6102 c-24 -26 -21 -47 9 -71 30 -24 61 -26 87 -7 20 15 23 66
5 84 -19 19 -82 15 -101 -6z"/>
<path d="M1187 6103 c-14 -4 -17 -13 -15 -36 3 -29 6 -32 38 -32 30 0 36 4 38
24 4 22 -20 53 -37 50 -3 -1 -14 -3 -24 -6z"/>
<path d="M773 6094 c-19 -8 -16 -38 5 -50 14 -9 22 -8 36 1 35 26 1 66 -41 49z"/>
<path d="M370 6065 c0 -8 5 -15 10 -15 6 0 10 7 10 15 0 8 -4 15 -10 15 -5 0
-10 -7 -10 -15z"/>
<path d="M4274 5966 c-40 -18 -47 -29 -47 -77 0 -60 23 -79 98 -79 68 0 88 12
100 62 13 51 -43 109 -104 108 -9 -1 -30 -7 -47 -14z"/>
<path d="M4663 5963 c-19 -13 -23 -25 -23 -72 0 -31 5 -62 12 -69 7 -7 42 -12
85 -12 l74 0 -3 83 -3 82 -60 2 c-42 2 -67 -2 -82 -14z"/>
<path d="M2630 5947 c-32 -15 -40 -26 -40 -58 0 -39 30 -61 81 -57 35 2 46 8
58 30 13 22 13 30 2 51 -12 22 -50 48 -69 46 -4 0 -18 -6 -32 -12z"/>
<path d="M3028 5946 c-23 -17 -33 -68 -19 -95 10 -17 21 -21 65 -21 60 0 86
19 86 63 0 55 -85 89 -132 53z"/>
<path d="M3426 5938 c-19 -30 -22 -48 -12 -76 7 -22 53 -52 79 -52 20 0 68 26
78 42 15 22 10 64 -10 86 -27 32 -114 31 -135 0z"/>
<path d="M3827 5931 c-24 -40 -21 -64 9 -95 21 -21 36 -26 73 -26 65 1 83 18
83 79 0 27 -3 54 -6 60 -4 6 -37 11 -74 11 -64 0 -69 -2 -85 -29z"/>
<path d="M1387 5926 c-12 -10 -17 -24 -15 -43 3 -24 8 -28 40 -31 32 -3 40 1
50 22 9 22 8 29 -7 46 -21 23 -43 25 -68 6z"/>
<path d="M1786 5921 c-23 -26 -17 -52 16 -70 38 -22 82 -5 86 32 2 15 -3 34
-12 42 -21 21 -70 19 -90 -4z"/>
<path d="M2193 5925 c-20 -23 -15 -62 9 -79 53 -37 112 -6 106 56 -3 32 -4 33
-53 35 -34 2 -54 -2 -62 -12z"/>
<path d="M570 5905 c-14 -17 -5 -35 19 -35 25 0 32 10 20 31 -12 23 -22 24
-39 4z"/>
<path d="M967 5913 c-15 -15 -6 -44 18 -55 30 -14 55 3 55 38 0 21 -5 24 -33
24 -19 0 -37 -3 -40 -7z"/>
<path d="M4470 5789 c-13 -6 -28 -15 -32 -22 -13 -21 -9 -92 8 -115 13 -19 24
-22 83 -22 85 0 101 14 101 88 0 47 -3 53 -30 67 -33 17 -92 19 -130 4z"/>
<path d="M3655 5783 c-22 -4 -45 -45 -45 -77 1 -61 89 -97 145 -60 21 14 25
24 25 69 0 50 -2 54 -31 64 -32 11 -56 12 -94 4z"/>
<path d="M4060 5783 c-45 -18 -55 -96 -17 -131 18 -17 36 -22 73 -22 58 0 66
5 87 47 15 28 15 35 2 66 -8 19 -22 37 -30 41 -20 7 -94 7 -115 -1z"/>
<path d="M2823 5768 c-18 -9 -23 -19 -23 -53 0 -22 5 -46 12 -53 19 -19 102
-15 121 6 55 61 -31 138 -110 100z"/>
<path d="M3228 5766 c-20 -14 -25 -80 -8 -106 14 -23 118 -20 136 5 20 27 17
79 -4 98 -23 21 -99 22 -124 3z"/>
<path d="M2011 5757 c-39 -20 -47 -41 -28 -71 23 -34 58 -42 91 -21 63 41 4
127 -63 92z"/>
<path d="M2408 5758 c-46 -37 -15 -108 47 -108 18 0 41 7 49 16 23 22 21 81
-3 94 -27 14 -74 13 -93 -2z"/>
<path d="M1579 5739 c-18 -35 3 -69 44 -69 38 0 57 15 57 45 0 30 -19 45 -57
45 -23 0 -36 -6 -44 -21z"/>
<path d="M1182 5741 c-8 -5 -12 -21 -10 -37 3 -26 7 -29 38 -29 31 0 35 3 38
29 4 29 -10 46 -38 46 -8 0 -21 -4 -28 -9z"/>
<path d="M767 5733 c-14 -14 -6 -42 13 -48 25 -8 50 10 50 36 0 14 -7 19 -28
19 -16 0 -32 -3 -35 -7z"/>
<path d="M366 5715 c-3 -9 0 -15 9 -15 8 0 15 7 15 15 0 8 -4 15 -9 15 -5 0
-11 -7 -15 -15z"/>
<path d="M4695 5623 c-42 -10 -55 -33 -55 -94 0 -71 11 -79 104 -79 l66 0 0
80 c0 77 -1 81 -26 90 -26 10 -55 11 -89 3z"/>
<path d="M4284 5613 c-57 -12 -79 -109 -33 -145 29 -24 121 -25 144 -1 38 37
41 96 6 127 -18 16 -82 27 -117 19z"/>
<path d="M3038 5594 c-31 -16 -44 -50 -33 -86 10 -32 23 -38 76 -38 55 0 79
21 79 68 0 26 -7 36 -32 52 -39 24 -54 24 -90 4z"/>
<path d="M3445 5599 c-11 -6 -26 -23 -33 -39 -19 -42 6 -87 53 -96 70 -13 115
15 115 71 0 59 -74 94 -135 64z"/>
<path d="M3831 5584 c-29 -37 -26 -70 8 -105 35 -35 92 -39 130 -10 20 15 24
28 24 66 0 60 -18 75 -89 75 -45 0 -56 -4 -73 -26z"/>
<path d="M2623 5585 c-28 -12 -33 -19 -33 -49 0 -41 28 -66 75 -66 36 0 48 8
64 37 16 31 14 41 -14 68 -27 28 -46 30 -92 10z"/>
<path d="M1790 5568 c-23 -25 -24 -32 -10 -58 13 -25 63 -35 89 -18 28 17 28
62 -1 82 -31 22 -54 20 -78 -6z"/>
<path d="M2197 5572 c-29 -32 -21 -66 18 -88 33 -17 37 -18 63 -2 34 21 43 75
16 95 -26 19 -78 16 -97 -5z"/>
<path d="M1388 5569 c-21 -12 -24 -49 -6 -67 22 -22 67 -14 80 13 9 21 8 28
-7 45 -20 22 -41 25 -67 9z"/>
<path d="M972 5561 c-8 -4 -12 -19 -10 -32 2 -20 9 -24 38 -24 29 0 36 4 38
24 4 24 -11 41 -38 41 -8 0 -21 -4 -28 -9z"/>
<path d="M566 5544 c-11 -30 13 -44 43 -25 12 8 12 12 2 25 -17 20 -37 20 -45
0z"/>
<path d="M4485 5434 c-48 -18 -55 -28 -55 -80 0 -62 17 -77 91 -82 53 -3 68
-1 87 16 20 17 23 28 20 74 -3 45 -7 55 -28 65 -44 20 -74 22 -115 7z"/>
<path d="M2833 5415 c-30 -13 -33 -18 -33 -60 0 -40 3 -47 26 -55 42 -16 82
-12 104 12 35 38 22 81 -33 106 -15 6 -29 12 -30 12 -1 -1 -17 -7 -34 -15z"/>
<path d="M3232 5411 c-31 -23 -34 -88 -5 -108 33 -25 65 -27 102 -7 30 16 37
25 39 55 3 30 -2 41 -24 58 -33 26 -81 27 -112 2z"/>
<path d="M3644 5422 c-17 -11 -34 -48 -34 -76 0 -36 43 -66 94 -66 59 1 76 17
76 75 0 34 -5 52 -17 61 -19 14 -101 19 -119 6z"/>
<path d="M4037 5412 c-24 -26 -22 -94 3 -117 25 -22 98 -30 129 -13 14 7 30
27 37 44 11 26 10 36 -4 65 -16 33 -19 34 -83 37 -53 2 -68 -1 -82 -16z"/>
<path d="M1590 5390 c-24 -24 -25 -43 -4 -64 36 -36 117 2 94 44 -11 20 -40
40 -59 40 -6 0 -20 -9 -31 -20z"/>
<path d="M1988 5385 c-23 -31 -23 -40 4 -65 43 -40 108 -17 108 38 0 54 -79
73 -112 27z"/>
<path d="M2393 5384 c-15 -23 -15 -29 -2 -52 33 -58 121 -47 127 16 5 46 -12
62 -64 62 -36 0 -47 -5 -61 -26z"/>
<path d="M1188 5389 c-11 -6 -18 -22 -18 -40 0 -29 2 -30 38 -27 31 2 38 7 40
27 3 15 -3 30 -14 38 -21 15 -24 15 -46 2z"/>
<path d="M772 5381 c-18 -11 -12 -41 10 -54 12 -8 21 -7 32 2 38 32 0 79 -42
52z"/>
<path d="M365 5361 c-7 -12 12 -24 25 -16 11 7 4 25 -10 25 -5 0 -11 -4 -15
-9z"/>
<path d="M4668 5254 c-26 -13 -28 -20 -28 -73 0 -69 9 -80 76 -87 95 -10 143
22 111 75 -9 16 -17 43 -17 59 0 18 -6 32 -16 36 -28 11 -98 6 -126 -10z"/>
<path d="M4273 5254 c-33 -8 -45 -28 -45 -78 0 -64 16 -76 100 -76 l70 0 17
36 c17 37 15 66 -9 97 -14 18 -90 30 -133 21z"/>
<path d="M3025 5234 c-15 -11 -20 -27 -20 -59 0 -24 4 -47 8 -51 4 -4 31 -8
61 -8 61 -1 86 17 86 63 0 57 -86 93 -135 55z"/>
<path d="M3442 5243 c-7 -3 -19 -17 -27 -33 -36 -70 52 -139 128 -99 30 16 37
28 37 66 0 45 -33 73 -84 72 -23 0 -47 -3 -54 -6z"/>
<path d="M3827 5221 c-22 -38 -21 -57 4 -92 18 -26 26 -29 72 -29 69 1 89 17
89 74 1 64 -12 76 -86 76 -57 0 -63 -2 -79 -29z"/>
<path d="M2620 5227 c-18 -9 -26 -22 -28 -45 -5 -48 12 -62 73 -62 49 0 53 2
65 31 27 65 -40 112 -110 76z"/>
<path d="M1786 5211 c-23 -25 -18 -49 16 -74 24 -18 30 -18 57 -7 25 10 31 18
31 43 0 53 -68 78 -104 38z"/>
<path d="M2197 5212 c-50 -55 35 -124 96 -78 20 15 23 66 5 84 -19 19 -82 15
-101 -6z"/>
<path d="M1386 5207 c-11 -8 -17 -23 -14 -38 2 -20 9 -25 39 -27 46 -4 67 18
51 53 -13 28 -47 33 -76 12z"/>
<path d="M963 5194 c-10 -26 11 -49 43 -49 26 0 29 4 29 30 0 27 -4 30 -33 33
-23 2 -34 -2 -39 -14z"/>
<path d="M561 5186 c-10 -12 -8 -17 9 -26 28 -15 57 5 39 26 -15 18 -33 18
-48 0z"/>
<path d="M4470 5072 c-32 -16 -35 -21 -38 -66 -5 -71 13 -86 100 -86 85 0 98
10 98 79 0 47 -3 53 -32 71 -40 24 -81 25 -128 2z"/>
<path d="M4867 5076 c-15 -12 -17 -26 -15 -82 l3 -68 47 -14 c54 -15 125 -2
135 24 6 16 -122 154 -142 154 -5 0 -18 -7 -28 -14z"/>
<path d="M2828 5054 c-23 -12 -28 -21 -28 -52 0 -50 14 -62 70 -62 91 0 112
76 33 118 -28 15 -42 15 -75 -4z"/>
<path d="M3226 5051 c-17 -19 -24 -79 -13 -99 4 -4 23 -14 44 -21 34 -11 43
-11 73 6 45 25 54 79 19 112 -30 28 -99 29 -123 2z"/>
<path d="M3626 5045 c-50 -77 38 -155 129 -113 22 10 25 17 25 63 0 28 -5 56
-12 63 -7 7 -38 12 -69 12 -49 0 -59 -3 -73 -25z"/>
<path d="M4037 5052 c-25 -28 -22 -84 7 -111 20 -19 33 -22 82 -19 56 3 60 5
75 38 16 32 13 69 -6 100 -3 5 -37 10 -74 10 -53 0 -72 -4 -84 -18z"/>
<path d="M1586 5028 c-22 -31 -20 -45 8 -63 42 -28 103 3 88 45 -15 42 -72 52
-96 18z"/>
<path d="M1987 5032 c-23 -25 -21 -45 6 -70 28 -27 68 -28 90 -4 20 22 22 63
5 80 -19 19 -82 15 -101 -6z"/>
<path d="M2395 5027 c-28 -44 3 -87 63 -87 49 0 64 17 60 67 l-3 38 -52 3
c-46 3 -54 0 -68 -21z"/>
<path d="M1187 5033 c-14 -4 -17 -13 -15 -36 3 -29 6 -32 38 -32 32 0 35 3 38
33 2 17 -1 32 -7 32 -5 0 -15 2 -23 4 -7 2 -21 2 -31 -1z"/>
<path d="M767 5024 c-13 -13 -7 -43 11 -53 23 -12 55 11 50 36 -3 18 -47 31
-61 17z"/>
<path d="M367 5004 c-11 -11 3 -24 18 -18 8 4 12 10 9 15 -6 11 -18 12 -27 3z"/>
<path d="M4668 4894 c-26 -13 -28 -20 -28 -73 0 -75 11 -84 100 -84 89 0 100
9 100 84 0 48 -4 60 -22 73 -29 20 -114 20 -150 0z"/>
<path d="M5060 4891 c-5 -11 -10 -44 -10 -75 0 -63 14 -82 65 -92 47 -8 125 4
125 20 0 12 -152 166 -163 166 -4 0 -11 -9 -17 -19z"/>
<path d="M3453 4890 c-12 -5 -29 -23 -38 -39 -14 -28 -14 -34 -1 -60 18 -33
65 -56 101 -47 59 15 84 80 48 125 -20 24 -77 35 -110 21z"/>
<path d="M3854 4890 c-25 -10 -48 -61 -40 -87 13 -42 45 -63 95 -63 63 0 81
19 81 89 0 46 -3 53 -26 61 -30 12 -81 12 -110 0z"/>
<path d="M4250 4882 c-29 -23 -32 -93 -5 -122 27 -29 134 -29 161 1 28 31 25
96 -5 120 -32 26 -120 26 -151 1z"/>
<path d="M3022 4870 c-25 -23 -29 -67 -9 -95 20 -26 98 -27 126 -1 21 19 28
61 13 82 -24 37 -97 44 -130 14z"/>
<path d="M2202 4861 c-45 -38 -14 -101 49 -101 34 0 59 29 59 69 0 25 -6 34
-26 41 -37 15 -58 12 -82 -9z"/>
<path d="M2606 4864 c-22 -21 -20 -67 2 -87 22 -20 95 -23 110 -4 23 27 24 65
3 86 -26 26 -92 29 -115 5z"/>
<path d="M1392 4858 c-18 -9 -22 -18 -20 -42 3 -27 7 -31 38 -34 24 -3 38 2
47 14 17 24 16 31 -7 54 -23 23 -26 23 -58 8z"/>
<path d="M1787 4852 c-22 -24 -21 -45 1 -65 21 -19 54 -22 83 -7 22 12 26 59
7 78 -18 18 -73 14 -91 -6z"/>
<path d="M570 4835 c-19 -23 5 -48 30 -33 14 9 16 15 7 30 -14 22 -21 22 -37
3z"/>
<path d="M967 4843 c-14 -13 -6 -43 13 -53 33 -17 60 -3 60 31 0 26 -3 29 -33
29 -19 0 -37 -3 -40 -7z"/>
<path d="M4883 4725 c-33 -14 -33 -15 -33 -83 0 -68 1 -70 30 -82 36 -15 132
-9 154 9 12 10 16 32 16 78 0 64 0 64 -35 79 -43 18 -90 17 -132 -1z"/>
<path d="M4485 4723 c-38 -9 -55 -34 -55 -80 0 -64 24 -83 103 -83 81 0 97 15
97 89 0 50 -1 53 -35 67 -34 14 -71 16 -110 7z"/>
<path d="M3238 4705 c-40 -22 -43 -87 -7 -117 34 -29 108 -19 131 16 14 21 8
73 -11 90 -26 24 -81 29 -113 11z"/>
<path d="M3635 4695 c-40 -40 -30 -96 22 -123 29 -16 58 -15 93 3 27 14 30 20
30 67 0 61 -16 77 -78 78 -32 0 -49 -6 -67 -25z"/>
<path d="M4042 4702 c-33 -29 -31 -94 4 -121 31 -24 110 -29 136 -8 29 23 37
69 19 107 -15 34 -18 35 -77 38 -47 2 -65 -1 -82 -16z"/>
<path d="M5259 4688 c-2 -65 3 -123 10 -131 12 -12 135 -19 151 -8 12 9 3 23
-55 81 -38 39 -78 76 -87 81 -16 8 -18 5 -19 -23z"/>
<path d="M2828 4698 c-25 -8 -28 -15 -28 -53 0 -51 16 -65 78 -65 70 0 98 68
46 109 -29 23 -54 25 -96 9z"/>
<path d="M1990 4675 c-20 -21 -22 -28 -12 -50 27 -58 122 -47 122 14 0 59 -68
81 -110 36z"/>
<path d="M2408 4688 c-46 -37 -15 -108 47 -108 18 0 41 7 49 16 19 18 21 75 4
92 -16 16 -80 15 -100 0z"/>
<path d="M1594 4683 c-24 -17 -26 -51 -4 -73 24 -24 55 -20 83 12 15 18 16 24
4 42 -15 21 -63 32 -83 19z"/>
<path d="M1177 4674 c-4 -4 -7 -20 -7 -35 0 -31 26 -45 61 -34 16 5 19 14 17
38 -3 27 -7 32 -33 35 -17 2 -34 0 -38 -4z"/>
<path d="M767 4664 c-16 -17 -6 -44 19 -50 30 -8 47 6 42 32 -3 19 -47 32 -61
18z"/>
<path d="M365 4651 c-7 -12 12 -24 25 -16 11 7 4 25 -10 25 -5 0 -11 -4 -15
-9z"/>
<path d="M4685 4545 c-22 -8 -41 -15 -43 -15 -2 0 -2 -30 0 -67 l3 -67 48 -14
c39 -11 55 -11 95 0 l47 14 3 61 c3 56 1 63 -21 78 -36 23 -86 27 -132 10z"/>
<path d="M5070 4540 c-15 -15 -20 -33 -20 -75 0 -78 19 -95 108 -95 93 0 106
14 100 105 -3 43 -9 70 -19 76 -7 5 -44 9 -81 9 -55 0 -72 -4 -88 -20z"/>
<path d="M3038 4525 c-31 -18 -42 -44 -33 -85 5 -24 14 -32 45 -41 33 -10 43
-9 72 8 26 15 34 26 36 56 3 32 -1 39 -30 57 -39 23 -54 24 -90 5z"/>
<path d="M3440 4527 c-8 -7 -21 -23 -28 -36 -12 -20 -12 -28 0 -50 20 -39 39
-50 84 -51 52 0 84 28 84 75 0 47 -32 75 -84 75 -23 0 -48 -6 -56 -13z"/>
<path d="M3831 4511 c-27 -38 -26 -64 3 -97 20 -24 31 -28 75 -28 66 0 84 17
83 79 0 64 -13 75 -83 75 -52 0 -60 -3 -78 -29z"/>
<path d="M4242 4524 c-20 -22 -17 -100 4 -121 27 -27 138 -25 158 2 24 33 28
64 10 100 l-16 35 -72 0 c-50 -1 -75 -5 -84 -16z"/>
<path d="M2635 4522 c-33 -7 -45 -23 -45 -57 0 -42 23 -60 76 -60 46 0 73 22
73 60 0 42 -50 70 -104 57z"/>
<path d="M1790 4500 c-11 -11 -20 -27 -20 -35 0 -23 37 -55 63 -55 52 1 77 59
39 93 -25 23 -58 21 -82 -3z"/>
<path d="M2197 4502 c-39 -43 -10 -91 54 -92 43 0 59 15 59 55 0 17 -5 36 -12
43 -19 19 -82 15 -101 -6z"/>
<path d="M1388 4499 c-24 -13 -23 -56 1 -69 27 -14 47 -13 65 6 21 20 20 30
-4 54 -22 22 -37 24 -62 9z"/>
<path d="M972 4491 c-8 -4 -12 -19 -10 -32 2 -20 9 -24 38 -24 32 0 35 2 35
30 0 25 -4 30 -25 33 -14 1 -31 -2 -38 -7z"/>
<path d="M563 4476 c-13 -15 1 -36 23 -36 21 0 35 25 22 38 -15 15 -30 15 -45
-2z"/>
<path d="M4873 4366 c-21 -10 -23 -18 -23 -78 0 -65 1 -68 30 -83 16 -8 47
-15 70 -15 23 0 54 7 70 15 28 15 30 19 30 79 0 57 -3 65 -25 80 -28 18 -117
20 -152 2z"/>
<path d="M4475 4364 c-11 -3 -26 -13 -32 -22 -15 -18 -17 -90 -4 -110 19 -31
144 -37 179 -9 18 14 16 111 -4 128 -16 13 -105 21 -139 13z"/>
<path d="M3233 4343 c-34 -23 -33 -94 2 -117 55 -36 135 -2 135 57 0 38 -7 50
-37 66 -30 15 -74 13 -100 -6z"/>
<path d="M3644 4352 c-15 -10 -34 -47 -34 -67 0 -9 9 -30 21 -46 18 -25 27
-29 67 -29 65 1 82 16 82 75 0 34 -5 52 -17 61 -19 14 -101 19 -119 6z"/>
<path d="M4037 4342 c-10 -11 -17 -35 -17 -59 0 -57 22 -73 98 -73 52 0 63 3
76 22 19 27 20 67 4 103 -10 23 -16 25 -78 25 -52 0 -71 -4 -83 -18z"/>
<path d="M2823 4340 c-19 -8 -23 -17 -23 -55 0 -52 10 -59 77 -60 63 0 94 52
58 98 -16 22 -80 31 -112 17z"/>
<path d="M1592 4320 c-26 -25 -28 -43 -6 -65 23 -22 73 -16 91 12 14 20 13 24
-11 48 -30 30 -45 31 -74 5z"/>
<path d="M1988 4318 c-24 -29 -23 -40 5 -66 42 -40 107 -20 107 33 0 53 -78
76 -112 33z"/>
<path d="M2396 4318 c-21 -29 -20 -40 3 -66 13 -16 30 -22 58 -22 46 0 63 14
63 51 0 51 -9 59 -61 59 -38 0 -51 -4 -63 -22z"/>
<path d="M770 4306 c-27 -33 18 -72 48 -42 13 13 14 20 6 34 -15 23 -38 26
-54 8z"/>
<path d="M1170 4285 c0 -36 0 -36 38 -33 34 3 37 6 37 33 0 27 -3 30 -37 33
-38 3 -38 3 -38 -33z"/>
<path d="M370 4285 c0 -8 5 -15 10 -15 6 0 10 7 10 15 0 8 -4 15 -10 15 -5 0
-10 -7 -10 -15z"/>
<path d="M4673 4185 c-32 -14 -33 -16 -33 -73 0 -77 12 -87 100 -87 88 0 100
10 100 87 0 58 -1 59 -35 74 -43 18 -90 17 -132 -1z"/>
<path d="M5066 4184 c-20 -20 -22 -122 -2 -149 11 -15 30 -20 84 -23 92 -5
112 12 112 94 0 88 -7 94 -100 94 -58 0 -83 -4 -94 -16z"/>
<path d="M3869 4183 c-27 -4 -59 -48 -59 -81 0 -10 9 -31 21 -46 17 -22 28
-26 70 -26 76 0 89 11 89 74 0 31 -5 58 -12 64 -16 13 -74 21 -109 15z"/>
<path d="M4276 4183 c-33 -9 -49 -33 -49 -74 0 -62 23 -79 103 -79 67 0 68 0
84 35 17 35 14 67 -8 98 -14 18 -93 31 -130 20z"/>
<path d="M3033 4168 c-24 -12 -38 -56 -28 -89 10 -31 61 -49 99 -36 62 21 76
81 27 116 -32 23 -64 26 -98 9z"/>
<path d="M3439 4167 c-29 -22 -41 -55 -28 -79 29 -58 95 -75 143 -37 34 27 36
79 4 109 -25 23 -93 27 -119 7z"/>
<path d="M2620 4157 c-18 -9 -26 -22 -28 -45 -5 -47 12 -62 69 -62 41 0 51 4
65 25 14 21 14 30 4 54 -16 40 -63 52 -110 28z"/>
<path d="M1783 4134 c-19 -30 -11 -50 29 -73 23 -13 29 -13 52 2 17 12 26 26
26 44 0 54 -76 73 -107 27z"/>
<path d="M2198 4146 c-23 -17 -23 -58 0 -79 21 -19 64 -22 93 -7 22 12 27 68
7 88 -16 16 -79 15 -100 -2z"/>
<path d="M1388 4139 c-26 -15 -23 -58 5 -68 26 -10 47 -4 65 17 16 20 15 27
-4 46 -18 18 -41 20 -66 5z"/>
<path d="M570 4125 c-19 -22 5 -48 31 -34 24 12 24 21 0 36 -15 10 -22 9 -31
-2z"/>
<path d="M967 4133 c-4 -3 -7 -17 -7 -29 0 -17 7 -25 25 -30 38 -9 55 2 55 36
0 27 -3 30 -33 30 -19 0 -37 -3 -40 -7z"/>
<path d="M4493 4010 c-51 -11 -63 -27 -63 -80 0 -64 19 -80 99 -81 80 -1 101
15 101 81 0 32 -5 52 -17 62 -22 19 -78 27 -120 18z"/>
<path d="M4873 4008 c-21 -10 -23 -18 -23 -79 0 -82 8 -89 103 -89 82 0 97 14
97 93 0 46 -4 58 -22 71 -26 18 -121 21 -155 4z"/>
<path d="M3660 4004 c-25 -10 -50 -47 -50 -75 0 -14 11 -38 25 -53 30 -33 102
-37 128 -8 22 24 23 105 2 122 -16 14 -83 22 -105 14z"/>
<path d="M4046 3989 c-20 -16 -26 -29 -26 -58 0 -53 32 -81 92 -81 63 0 76 7
93 46 12 29 12 39 0 68 -16 39 -30 46 -89 46 -29 0 -52 -7 -70 -21z"/>
<path d="M2832 3988 c-31 -8 -32 -11 -32 -58 0 -49 0 -49 39 -60 59 -16 111
11 111 57 0 49 -54 77 -118 61z"/>
<path d="M3226 3981 c-17 -19 -24 -79 -12 -100 4 -5 22 -15 41 -21 30 -10 41
-9 73 7 31 15 37 24 40 55 2 27 -2 41 -19 57 -30 28 -99 29 -123 2z"/>
<path d="M2020 3983 c-25 -9 -50 -35 -50 -53 0 -22 41 -60 66 -60 33 0 64 29
64 59 0 39 -42 68 -80 54z"/>
<path d="M2401 3963 c-36 -45 -6 -92 60 -93 45 0 59 15 59 62 0 42 -19 58 -69
58 -20 0 -36 -8 -50 -27z"/>
<path d="M1590 3960 c-11 -11 -20 -24 -20 -30 0 -17 39 -50 60 -50 28 0 61 35
53 57 -16 44 -61 55 -93 23z"/>
<path d="M1182 3961 c-8 -5 -12 -21 -10 -37 3 -26 7 -29 38 -29 31 0 35 3 38
29 4 29 -10 46 -38 46 -8 0 -21 -4 -28 -9z"/>
<path d="M772 3951 c-25 -16 -10 -46 23 -46 25 0 30 4 30 25 0 27 -28 38 -53
21z"/>
<path d="M370 3930 c0 -5 5 -10 10 -10 6 0 10 5 10 10 0 6 -4 10 -10 10 -5 0
-10 -4 -10 -10z"/>
<path d="M5138 3843 c12 -2 32 -2 45 0 12 2 2 4 -23 4 -25 0 -35 -2 -22 -4z"/>
</g>
</svg>
