<?xml version="1.0" standalone="no"?>
<!DOCTYPE svg PUBLIC "-//W3C//DTD SVG 20010904//EN"
 "http://www.w3.org/TR/2001/REC-SVG-20010904/DTD/svg10.dtd">
<svg version="1.0" xmlns="http://www.w3.org/2000/svg"
 width="512.000000pt" height="512.000000pt" viewBox="0 0 512.000000 512.000000"
 preserveAspectRatio="xMidYMid meet">
<metadata>
Created by potrace 1.14, written by Peter Selinger 2001-2017
</metadata>
<g transform="translate(0.000000,512.000000) scale(0.100000,-0.100000)"
fill="#000000" stroke="none">
<path d="M1347 4195 c-358 -68 -689 -311 -946 -694 -238 -354 -331 -673 -318
-1091 14 -466 170 -851 450 -1116 303 -287 749 -443 1133 -395 281 35 443 153
773 565 230 289 361 493 746 1166 258 451 374 642 472 773 126 170 193 219
311 232 l64 7 48 -51 c116 -119 246 -470 324 -876 73 -379 97 -651 105 -1165
l6 -435 28 -57 c51 -103 143 -162 257 -162 114 0 206 59 257 162 l28 57 1 270
c4 801 -81 1456 -256 1975 -161 478 -350 729 -619 822 -57 20 -86 23 -211 23
-180 0 -265 -18 -398 -86 -271 -137 -432 -350 -957 -1274 -327 -575 -451 -767
-661 -1029 -173 -216 -244 -290 -310 -322 -53 -26 -59 -26 -182 -22 -109 4
-141 10 -226 38 -170 57 -320 161 -415 288 -129 172 -194 397 -194 672 0 277
59 469 222 712 196 294 430 452 666 452 95 0 166 -35 260 -129 88 -88 171
-206 290 -411 50 -87 109 -176 130 -198 52 -53 115 -79 195 -79 196 -1 339
192 275 373 -18 50 -174 319 -256 442 -198 294 -421 479 -661 549 -97 28 -318
35 -431 14z"/>
</g>
</svg>
