<?xml version="1.0" standalone="no"?>
<!DOCTYPE svg PUBLIC "-//W3C//DTD SVG 20010904//EN"
 "http://www.w3.org/TR/2001/REC-SVG-20010904/DTD/svg10.dtd">
<svg version="1.0" xmlns="http://www.w3.org/2000/svg"
 width="800.000000pt" height="800.000000pt" viewBox="0 0 800.000000 800.000000"
 preserveAspectRatio="xMidYMid meet">
<metadata>
Created by potrace 1.14, written by Peter Selinger 2001-2017
</metadata>
<g transform="translate(0.000000,800.000000) scale(0.100000,-0.100000)"
fill="#000000" stroke="none">
<path d="M1359 7516 c-2 -2 -26 -6 -54 -9 -27 -3 -61 -9 -75 -12 -14 -3 -38
-8 -55 -11 -124 -21 -348 -116 -487 -206 -363 -237 -589 -586 -674 -1043 -5
-22 -9 -1014 -10 -2205 -3 -2310 -4 -2225 45 -2421 51 -201 180 -455 298 -585
95 -106 135 -146 224 -219 83 -70 245 -166 344 -204 33 -13 74 -30 90 -37 17
-7 66 -22 110 -34 197 -50 78 -48 2885 -48 2678 -1 2634 -1 2820 33 55 10 201
56 240 75 19 10 38 18 43 19 8 1 152 75 182 94 51 32 205 150 245 189 69 67
150 163 200 236 45 66 104 162 105 172 1 3 15 34 31 70 28 60 65 158 63 170 0
3 5 19 11 35 12 29 15 42 25 88 2 12 7 33 10 47 3 14 9 48 13 75 9 61 10 3058
1 3100 -4 17 -10 47 -14 68 -4 20 -11 40 -16 43 -5 3 -9 13 -9 23 0 28 -77
166 -115 207 -5 6 -24 26 -41 46 -25 29 -75 71 -149 126 -26 19 -157 74 -215
89 -61 17 -201 18 -2430 18 -2235 0 -2369 -1 -2430 -18 -167 -45 -317 -146
-421 -282 -35 -45 -74 -116 -71 -127 1 -5 -2 -8 -6 -8 -12 0 -59 -162 -67
-225 -3 -27 -5 -192 -5 -365 2 -372 2 -326 1 -535 0 -11 0 -74 0 -140 1 -66 1
-127 0 -135 0 -8 0 -55 0 -105 1 -49 1 -97 0 -105 0 -8 0 -69 0 -135 1 -66 1
-127 0 -135 0 -8 0 -55 0 -105 1 -49 1 -97 0 -105 0 -8 0 -69 0 -135 1 -66 1
-127 0 -135 0 -8 0 -55 0 -105 1 -49 1 -97 1 -105 -1 -8 -1 -135 -2 -282 -1
-330 2 -343 105 -373 25 -8 45 -10 45 -6 0 5 18 5 39 1 22 -4 45 -4 52 0 6 4
25 4 40 0 16 -5 31 -5 34 0 3 4 20 5 37 1 18 -4 44 -6 58 -4 14 1 39 4 55 6
17 2 42 0 57 -4 15 -4 30 -4 33 1 3 4 20 5 37 1 18 -4 45 -6 61 -4 15 2 39 4
55 6 15 2 39 0 54 -4 15 -4 30 -4 33 1 3 4 20 4 39 0 35 -8 93 7 123 31 9 8
22 28 29 45 15 35 21 134 10 152 -3 6 -2 13 3 17 7 3 7 15 1 29 -5 13 -6 26
-3 29 3 3 4 38 4 76 -1 39 -2 79 -1 89 0 9 0 33 0 53 0 44 35 99 73 117 23 11
369 14 1931 14 l1904 0 35 -24 c46 -30 55 -53 58 -156 0 -29 -1 -56 -4 -59 -3
-3 -2 -16 3 -29 7 -16 6 -24 -1 -24 -8 0 -8 -4 -1 -13 7 -8 7 -18 2 -27 -5 -8
-7 -17 -4 -22 9 -14 2 -198 -9 -268 -2 -14 -16 -51 -30 -83 -66 -146 -191
-252 -342 -288 -70 -17 -5106 -19 -5204 -3 -153 26 -280 122 -357 266 -19 38
-33 68 -31 68 3 0 -1 19 -8 43 -10 34 -17 118 -15 185 0 6 0 20 0 30 0 9 0 31
1 47 0 17 0 37 0 45 -3 67 -2 123 3 127 2 3 1 16 -4 29 -7 16 -6 24 1 24 8 0
8 4 1 13 -6 7 -7 18 -3 25 4 7 5 32 2 55 -4 23 -4 56 -1 72 4 17 3 40 -2 53
-5 14 -4 22 3 22 8 0 8 4 1 13 -6 7 -7 18 -3 25 4 7 5 32 1 55 -3 23 -3 57 1
75 4 18 3 35 -1 37 -5 3 -5 18 -1 33 4 15 6 38 4 52 -5 51 -5 131 0 137 3 3 2
16 -3 29 -7 16 -6 24 1 24 8 0 8 4 1 13 -6 7 -7 18 -2 27 4 7 5 23 0 34 -4 12
-4 30 0 40 3 11 4 38 0 60 -3 23 -3 55 0 71 4 17 3 40 -2 53 -5 14 -4 22 3 22
8 0 8 4 0 13 -6 8 -8 17 -5 20 6 6 7 38 3 170 0 32 1 61 4 64 3 3 2 16 -3 29
-7 16 -6 24 1 24 8 0 8 4 1 13 -6 7 -7 18 -2 27 4 7 5 23 0 34 -4 12 -4 30 0
40 3 11 4 38 0 60 -3 23 -3 55 0 71 4 17 3 40 -2 53 -5 14 -4 22 3 22 8 0 8 4
1 13 -6 7 -7 18 -3 25 4 7 5 32 2 55 -4 23 -4 56 -1 72 4 17 3 40 -2 53 -5 14
-4 22 3 22 8 0 8 4 1 13 -6 7 -7 18 -3 25 4 7 5 32 2 55 -4 23 -4 56 -1 72 4
17 3 40 -2 53 -5 14 -4 22 3 22 8 0 8 4 1 13 -6 7 -7 18 -3 25 4 7 5 32 1 55
-3 23 -3 57 1 75 4 18 3 35 -1 37 -5 3 -5 17 -1 32 4 14 4 48 1 73 -3 26 -3
56 1 66 3 11 3 29 -2 41 -5 13 -4 25 1 28 5 3 6 15 1 28 -5 12 -5 31 -1 42 4
11 5 24 2 29 -7 12 -5 116 2 123 2 3 1 16 -4 29 -7 16 -6 24 1 24 8 0 8 4 1
13 -6 7 -7 18 -3 25 4 7 5 32 2 55 -4 23 -4 56 -1 72 4 17 3 40 -2 53 -5 14
-4 22 3 22 8 0 8 4 1 13 -6 7 -7 18 -3 25 4 7 5 32 1 55 -3 23 -3 57 1 75 4
18 3 35 -1 37 -5 3 -5 17 -1 32 4 14 4 48 1 73 -3 26 -3 56 1 66 3 11 3 29 -2
41 -5 13 -4 25 1 28 6 3 6 15 0 29 -5 13 -6 26 -4 29 3 3 7 31 8 64 6 121 56
230 146 321 55 54 158 116 211 126 13 3 24 5 24 6 0 14 3472 21 3524 7 59 -15
105 -92 90 -155 -4 -17 -3 -34 1 -37 5 -3 5 -18 0 -34 -4 -15 -4 -34 0 -41 4
-6 4 -27 0 -46 -4 -19 -4 -36 0 -39 5 -3 5 -18 0 -34 -4 -15 -4 -34 0 -41 4
-6 4 -27 0 -46 -4 -19 -4 -36 0 -39 5 -3 6 -14 3 -26 -7 -26 22 -91 48 -107
26 -16 139 -30 184 -22 26 4 104 2 113 -4 6 -3 13 -2 17 3 3 6 15 7 27 2 12
-4 36 -5 53 -1 17 4 39 4 50 0 11 -4 29 -4 40 0 11 4 29 4 40 0 11 -4 32 -4
46 0 15 4 32 4 39 0 7 -5 23 -4 36 0 12 5 25 6 28 3 6 -6 89 -6 164 1 57 4 96
40 108 99 2 12 4 58 4 102 -1 44 -1 87 -1 95 1 413 -1 490 -13 546 -4 16 -8
38 -10 50 -17 89 -72 222 -128 307 -21 32 -38 60 -38 63 0 11 -142 158 -200
207 -61 52 -201 124 -305 159 -148 48 -89 47 -2076 47 -1026 1 -1868 -1 -1870
-3z m5552 -3021 c15 -3 38 -19 52 -33 32 -34 41 -72 36 -154 0 -7 0 -39 1 -71
1 -32 0 -61 -3 -64 -3 -3 -2 -16 3 -29 7 -16 6 -24 -1 -24 -8 0 -8 -4 -1 -13
6 -7 7 -18 3 -25 -4 -7 -5 -32 -2 -55 4 -23 4 -55 1 -72 -4 -16 -3 -40 2 -52
5 -15 4 -23 -3 -23 -8 0 -8 -4 -1 -13 6 -7 7 -18 3 -25 -4 -7 -5 -32 -1 -55 3
-23 3 -57 -1 -75 -4 -18 -3 -35 2 -38 4 -2 4 -15 -1 -28 -5 -13 -6 -26 -3 -29
13 -14 -20 -74 -52 -96 l-36 -24 -1908 0 c-1844 0 -1909 0 -1939 18 -38 23
-73 91 -62 120 4 11 4 30 -1 43 -5 14 -5 22 2 22 6 0 8 4 4 10 -3 5 -5 29 -5
52 1 89 1 104 0 123 0 11 -1 56 -1 99 0 44 -2 83 -5 88 -3 4 0 8 7 8 8 0 8 4
1 13 -6 7 -7 18 -2 27 4 7 5 23 1 34 -4 12 -5 32 -1 46 3 13 3 46 0 73 -4 26
-3 50 1 52 4 3 5 14 2 25 -17 63 31 134 100 147 49 10 3772 8 3808 -2z"/>
<path d="M7019 6856 c-54 -32 -73 -48 -97 -83 -28 -40 -34 -62 -37 -135 -5
-128 92 -229 225 -233 74 -3 130 18 179 67 48 49 71 109 67 180 -4 66 -24 113
-66 155 -49 49 -87 65 -165 68 -56 2 -77 -2 -106 -19z m201 -60 c113 -75 114
-237 1 -311 -116 -77 -274 2 -286 143 -11 149 160 251 285 168z"/>
<path d="M7095 6770 c-42 -9 -68 -27 -88 -62 -19 -33 -22 -96 -7 -130 14 -29
68 -65 108 -71 45 -7 105 26 125 68 l17 35 -35 0 c-24 0 -35 -5 -35 -14 0 -27
-38 -45 -73 -35 -39 11 -62 40 -65 80 -5 65 96 106 136 54 17 -22 72 -37 72
-19 0 22 -42 74 -59 74 -6 0 -11 4 -11 9 0 12 -49 18 -85 11z"/>
</g>
</svg>
